<svg width="100" height="80" viewBox="0 0 100 80" fill="none" xmlns="http://www.w3.org/2000/svg">
<g filter="url(#filter0_d_2_2486)">
<g filter="url(#filter1_d_2_2486)">
<ellipse cx="67" cy="5.5" rx="67" ry="5.5" transform="matrix(1 0 0 -1 107 61)" fill="url(#paint0_linear_2_2486)"/>
<ellipse cx="67" cy="5.5" rx="67" ry="5.5" transform="matrix(1 0 0 -1 107 61)" fill="url(#paint1_linear_2_2486)" fill-opacity="0.5"/>
<ellipse cx="96.5" cy="5.5" rx="96.5" ry="5.5" transform="matrix(1 0 0 -1 36 59)" fill="url(#paint2_linear_2_2486)"/>
<ellipse cx="96.5" cy="5.5" rx="96.5" ry="5.5" transform="matrix(1 0 0 -1 36 59)" fill="url(#paint3_linear_2_2486)" fill-opacity="0.5"/>
<ellipse cx="67" cy="5.5" rx="67" ry="5.5" transform="matrix(1 0 0 -1 63 55)" fill="url(#paint4_linear_2_2486)"/>
<ellipse cx="67" cy="5.5" rx="67" ry="5.5" transform="matrix(1 0 0 -1 63 55)" fill="url(#paint5_linear_2_2486)" fill-opacity="0.5"/>
<ellipse cx="67" cy="5.5" rx="67" ry="5.5" transform="matrix(1 0 0 -1 20 61)" fill="url(#paint6_linear_2_2486)"/>
<ellipse cx="67" cy="5.5" rx="67" ry="5.5" transform="matrix(1 0 0 -1 20 61)" fill="url(#paint7_linear_2_2486)" fill-opacity="0.5"/>
<g clip-path="url(#clip0_2_2486)">
<path d="M129.357 48.7865L129.213 48.6432C128.929 48.3585 128.929 47.8971 129.213 47.6124L143.155 33.671L144.329 34.845L130.388 48.7865C130.103 49.0711 129.641 49.0711 129.357 48.7865Z" fill="url(#paint8_linear_2_2486)"/>
<path d="M140.997 35.8288V38.1769L144.329 34.845L143.155 33.671L140.997 35.8288Z" fill="url(#paint9_linear_2_2486)"/>
<path d="M132.598 24.6117C132.768 25.0312 133.302 25.1553 133.643 24.8581C143.363 16.3909 154.507 13.4829 159.511 18.4572C152.213 11.1759 140.394 11.1809 133.102 18.4728C131.591 19.9834 131.598 22.133 132.593 24.5997C132.595 24.6037 132.597 24.6077 132.598 24.6117Z" fill="url(#paint10_linear_2_2486)"/>
<path d="M159.543 18.4891C164.497 23.4735 161.633 34.5463 153.245 44.2388C152.95 44.5799 153.074 45.1109 153.492 45.2819C155.949 46.288 158.079 46.3458 159.527 44.8982C166.819 37.6064 166.824 25.7875 159.543 18.4891Z" fill="url(#paint11_linear_2_2486)"/>
<path d="M146.368 39.9067C146.125 40.1567 145.73 40.1726 145.465 39.9464C144.158 38.8313 142.858 37.628 141.604 36.3962C140.337 35.1527 139.117 33.8775 137.996 32.6023C137.764 32.3384 137.778 31.9385 138.03 31.6937C147.857 22.1407 157.326 16.2715 159.527 18.4727C161.723 20.6687 155.884 30.1028 146.368 39.9067Z" fill="url(#paint12_linear_2_2486)"/>
<path d="M159.527 18.4728C159.239 18.1847 158.943 17.9094 158.641 17.6439L158.382 18.0266V45.6828C158.799 45.5013 159.183 45.2427 159.527 44.8981C166.824 37.6009 166.824 25.77 159.527 18.4728Z" fill="url(#paint13_linear_2_2486)"/>
<path d="M133.198 25.9107C134.125 27.7106 135.495 29.6395 137.124 31.5862C137.369 31.8798 137.814 31.9035 138.089 31.6369C147.895 22.1174 157.33 16.2759 159.527 18.4727C154.48 13.4255 143.146 16.4418 133.346 25.1185C133.122 25.3173 133.06 25.6443 133.198 25.9107Z" fill="url(#paint14_linear_2_2486)"/>
<path d="M159.527 18.4727C161.718 20.6634 155.912 30.0572 146.437 39.8356C146.168 40.1127 146.195 40.5617 146.494 40.8055C148.443 42.3937 150.386 43.7516 152.196 44.6822C152.464 44.8195 152.791 44.7574 152.99 44.5318C161.583 34.7598 164.554 23.4995 159.527 18.4727Z" fill="url(#paint15_linear_2_2486)"/>
<path d="M146.368 39.9061C146.125 40.1571 145.73 40.1723 145.465 39.9462C144.157 38.831 142.858 37.6281 141.604 36.3962C140.337 35.1525 139.117 33.8777 137.996 32.6028C137.763 32.3387 137.778 31.9384 138.03 31.6937C138.046 31.6771 138.063 31.6619 138.079 31.6453C138.159 31.5679 138.239 31.4911 138.318 31.4144C138.395 31.3405 138.472 31.2665 138.548 31.1932C138.682 31.0646 138.816 30.9374 138.95 30.8095C138.969 30.7915 138.988 30.7736 139.006 30.7556C139.237 30.5378 139.465 30.3221 139.693 30.1092C139.979 29.8423 140.264 29.5783 140.549 29.3183C140.643 29.2319 140.737 29.1461 140.832 29.0605C140.907 28.992 140.982 28.9236 141.058 28.8552C141.268 28.6657 141.477 28.4791 141.685 28.2931C141.704 28.2765 141.723 28.2592 141.742 28.2426C141.859 28.1382 141.976 28.0345 142.093 27.9316C142.274 27.7732 142.453 27.6164 142.632 27.4615C142.707 27.3964 142.781 27.3322 142.855 27.2679C143.078 27.0757 143.3 26.8856 143.52 26.6996C143.642 26.5958 143.764 26.4935 143.885 26.3912C145.048 27.7241 146.319 29.0577 147.643 30.3567C148.95 31.6398 150.305 32.8912 151.667 34.0443C151.624 34.0968 151.58 34.1494 151.536 34.2013C151.398 34.3658 151.258 34.5317 151.117 34.697C150.756 35.12 150.386 35.5466 150.008 35.9759C149.99 35.996 149.973 36.016 149.955 36.0354C149.69 36.3347 149.421 36.6354 149.149 36.9382C149.008 37.0945 148.865 37.2507 148.722 37.4076C148.471 37.6828 148.216 37.9587 147.958 38.2359C147.937 38.2579 147.916 38.2801 147.896 38.3022C147.683 38.5304 147.466 38.7592 147.249 38.9887C147.126 39.1173 147.003 39.2472 146.879 39.3772C146.771 39.4892 146.664 39.6005 146.556 39.7126C146.493 39.7769 146.431 39.8419 146.368 39.9061Z" fill="url(#paint16_linear_2_2486)"/>
<path d="M139.564 20.4775C140.621 22.3656 142.128 24.3774 143.885 26.3912C143.764 26.4929 143.642 26.5959 143.52 26.6996C143.3 26.8855 143.078 27.0757 142.855 27.2679C142.781 27.3322 142.707 27.3965 142.632 27.4615C142.453 27.6164 142.274 27.7732 142.093 27.9316C141.976 28.0346 141.859 28.1382 141.742 28.2426C141.723 28.2592 141.704 28.2765 141.685 28.2931C141.476 28.4791 141.268 28.6658 141.058 28.8552C140.982 28.9236 140.907 28.9921 140.831 29.0605C140.737 29.1462 140.643 29.232 140.549 29.3184C140.264 29.5783 139.979 29.8424 139.693 30.1092C139.465 30.3222 139.236 30.5379 139.006 30.7556C138.988 30.7736 138.969 30.7915 138.95 30.8095C138.816 30.9374 138.682 31.0646 138.548 31.1932C138.472 31.2665 138.395 31.3405 138.318 31.4144C138.242 31.4884 138.166 31.5631 138.089 31.637C138.086 31.6398 138.083 31.6432 138.079 31.6453C137.803 31.9032 137.366 31.877 137.124 31.5859C135.494 29.6398 134.125 27.711 133.198 25.9107C133.061 25.6438 133.122 25.3176 133.346 25.1191C133.445 25.0313 133.544 24.9449 133.643 24.8586C133.697 24.8108 133.751 24.7639 133.807 24.7168C133.883 24.6497 133.96 24.5841 134.038 24.5184C134.097 24.4679 134.157 24.4167 134.216 24.367C135.006 23.6999 135.804 23.0707 136.607 22.4783C136.685 22.4202 136.764 22.3628 136.842 22.3061C136.852 22.2978 136.862 22.2902 136.874 22.2833C137.099 22.1188 137.324 21.9584 137.55 21.8008C137.558 21.7953 137.566 21.7903 137.573 21.7842C137.723 21.6797 137.873 21.5767 138.023 21.4758C138.028 21.4717 138.034 21.4669 138.041 21.4627C138.193 21.3597 138.345 21.2588 138.496 21.1585C138.578 21.1039 138.661 21.0507 138.742 20.9967C138.897 20.8972 139.051 20.7983 139.206 20.7002C139.208 20.6988 139.21 20.6982 139.21 20.6975C139.328 20.6234 139.446 20.5501 139.564 20.4775Z" fill="url(#paint17_linear_2_2486)"/>
<path d="M152.99 44.5319C152.791 44.7572 152.463 44.8195 152.197 44.6819C150.386 43.7513 148.443 42.3935 146.494 40.8055C146.195 40.5615 146.168 40.1128 146.437 39.8356C146.476 39.7948 146.516 39.7533 146.556 39.7125C146.663 39.6005 146.771 39.4893 146.878 39.3772C147.002 39.2479 147.126 39.1187 147.249 38.9887C147.467 38.7598 147.682 38.531 147.895 38.3022C147.916 38.2801 147.937 38.258 147.958 38.2358C148.216 37.9593 148.471 37.6827 148.722 37.4076C148.865 37.2507 149.008 37.0944 149.149 36.9382C149.422 36.6361 149.691 36.3354 149.955 36.0353C149.973 36.016 149.99 35.9959 150.007 35.9759C150.386 35.5473 150.756 35.1208 151.116 34.6969C151.258 34.5317 151.398 34.3658 151.536 34.2012C151.58 34.1487 151.624 34.0968 151.667 34.045C153.679 35.7512 155.705 37.2431 157.605 38.3036C157.574 38.3548 157.542 38.406 157.511 38.4571C157.415 38.6127 157.317 38.7682 157.219 38.9231C157.217 38.9258 157.216 38.9272 157.215 38.9285C157.067 39.1602 156.917 39.3911 156.764 39.6227C156.761 39.6268 156.758 39.6317 156.755 39.6358C156.654 39.7865 156.553 39.9372 156.45 40.0886C156.285 40.3299 156.116 40.5719 155.943 40.8124C155.776 41.0475 155.605 41.2818 155.432 41.5162C155.374 41.5943 155.316 41.6725 155.256 41.7498C155.15 41.8923 155.041 42.034 154.932 42.1764C154.794 42.3555 154.655 42.5339 154.512 42.7122C154.349 42.9168 154.183 43.1215 154.016 43.3261C153.764 43.6317 153.508 43.9352 153.246 44.2387C153.161 44.3362 153.076 44.4337 152.99 44.5319Z" fill="url(#paint18_linear_2_2486)"/>
<path d="M139.564 20.4768C139.447 20.5494 139.328 20.6233 139.21 20.6973C139.21 20.698 139.207 20.6987 139.206 20.7001C139.052 20.7975 138.898 20.8964 138.742 20.9966C138.661 21.0505 138.578 21.1037 138.496 21.1584C138.344 21.2579 138.193 21.3595 138.041 21.4625C138.034 21.4667 138.028 21.4715 138.022 21.4757C137.872 21.5773 137.722 21.6803 137.573 21.784C137.565 21.7902 137.558 21.7951 137.55 21.8006C137.324 21.9582 137.099 22.1186 136.873 22.2831C136.862 22.29 136.852 22.2977 136.842 22.3059C136.763 22.3626 136.685 22.42 136.606 22.4781C135.804 23.0706 135.006 23.6997 134.216 24.3669C134.156 24.4166 134.098 24.4671 134.038 24.5182C133.961 24.5833 133.883 24.6496 133.806 24.7167C133.751 24.7637 133.697 24.8107 133.643 24.8584C133.301 25.1556 132.767 25.0313 132.598 24.6116C132.597 24.6075 132.595 24.604 132.593 24.5998C131.598 22.1331 131.591 19.9831 133.101 18.4725C134.563 17.0103 136.207 15.8413 137.96 14.966C137.808 16.5584 138.424 18.4457 139.564 20.4768Z" fill="url(#paint19_linear_2_2486)"/>
<path d="M159.527 44.8983C158.08 46.346 155.949 46.2879 153.491 45.282C153.074 45.1113 152.95 44.5803 153.246 44.2388C153.508 43.9353 153.764 43.6318 154.016 43.3262C154.184 43.1223 154.35 42.9176 154.512 42.7123C154.655 42.5339 154.794 42.3555 154.932 42.1765C155.042 42.0348 155.15 41.8924 155.256 41.7499C155.316 41.6725 155.374 41.5943 155.432 41.5163C155.606 41.2826 155.777 41.0483 155.943 40.8125C156.116 40.572 156.285 40.33 156.45 40.0887C156.553 39.9374 156.655 39.7873 156.755 39.6359C156.758 39.6318 156.761 39.6269 156.764 39.6228C156.917 39.3919 157.068 39.161 157.215 38.9286C157.216 38.9272 157.217 38.9259 157.219 38.9232C157.318 38.7676 157.415 38.6128 157.511 38.4572C157.542 38.406 157.574 38.3548 157.605 38.3037C159.625 39.4327 161.504 40.0721 163.072 39.9629C162.192 41.7445 161.011 43.4147 159.527 44.8983Z" fill="url(#paint20_linear_2_2486)"/>
<path d="M159.543 18.4896C159.539 18.4853 159.535 18.4809 159.531 18.4766C160.445 19.3977 159.955 21.5822 158.382 24.5285V36.9746C162.567 29.4853 163.283 22.2527 159.543 18.4896Z" fill="url(#paint21_linear_2_2486)"/>
<path d="M159.247 18.7534C159.524 19.031 159.767 19.3226 159.973 19.6179C160.019 19.5745 160.063 19.528 160.102 19.4756L162.141 16.7524C162.331 16.4983 162.306 16.1429 162.081 15.9185C161.857 15.694 161.502 15.6686 161.248 15.8589L158.524 17.898C158.472 17.9372 158.425 17.9809 158.382 18.0266C158.677 18.2329 158.969 18.4758 159.247 18.7534Z" fill="url(#paint22_linear_2_2486)"/>
</g>
<g clip-path="url(#clip1_2_2486)">
<path d="M199.634 32.5517C199.634 32.5517 198.894 27.5642 206.321 18.6161C206.321 18.6161 202.743 27.6168 199.634 32.5517Z" fill="url(#paint23_linear_2_2486)"/>
<path d="M199.634 32.5517C202.743 27.6169 206.321 18.6161 206.321 18.6161C206.321 18.6161 200.383 28.4484 199.634 32.5517Z" fill="url(#paint24_linear_2_2486)"/>
<path d="M213.584 28.5578C213.584 28.5578 216.155 31.9988 226.051 32.0706C226.051 32.0706 218.446 29.2854 213.584 28.5578Z" fill="url(#paint25_linear_2_2486)"/>
<path d="M213.584 28.5578C218.446 29.2854 226.051 32.0706 226.051 32.0706C226.051 32.0706 216.519 30.442 213.584 28.5578Z" fill="url(#paint26_linear_2_2486)"/>
<path d="M199.84 33.2942C199.84 33.2942 200.836 36.9872 208.6 40.2307C208.6 40.2307 203.448 35.4643 199.84 33.2942Z" fill="url(#paint27_linear_2_2486)"/>
<path d="M199.84 33.2942C203.448 35.4642 208.6 40.2307 208.6 40.2307C208.6 40.2307 201.587 35.8077 199.84 33.2942Z" fill="url(#paint28_linear_2_2486)"/>
<path d="M216.313 28.3935C216.313 28.3935 220.352 26.6372 230.641 30.5929C230.641 30.5929 221.644 29.7738 216.313 28.3935Z" fill="url(#paint29_linear_2_2486)"/>
<path d="M216.313 28.3935C221.644 29.7738 230.641 30.5929 230.641 30.5929C230.641 30.5929 220.108 28.0513 216.313 28.3935Z" fill="url(#paint30_linear_2_2486)"/>
<path d="M202.201 31.0415C202.201 31.0415 204.076 20.2894 212.501 17.5448C212.501 17.5448 206.877 20.8938 202.201 31.0415Z" fill="url(#paint31_linear_2_2486)"/>
<path d="M212.501 17.5448C212.494 17.5471 212.487 17.5497 212.48 17.5519C212.081 17.6927 205.917 20.0256 202.201 31.0415C206.877 20.8937 212.501 17.5448 212.501 17.5448Z" fill="url(#paint32_linear_2_2486)"/>
<path d="M204.469 30.0129C204.469 30.0129 209.406 21.7374 215.959 18.5104C215.959 18.5104 207.101 19.6105 204.469 30.0129Z" fill="url(#paint33_linear_2_2486)"/>
<path d="M215.959 18.5104C215.959 18.5104 208.793 20.1072 204.469 30.0129C204.469 30.0129 209.406 21.7374 215.959 18.5104Z" fill="url(#paint34_linear_2_2486)"/>
<path d="M206.821 29.2016C206.821 29.2016 210.042 19.9115 219.107 20.56C219.107 20.5601 212.382 21.6839 206.821 29.2016Z" fill="url(#paint35_linear_2_2486)"/>
<path d="M219.107 20.56C211.429 20.7934 206.821 29.2015 206.821 29.2015C212.382 21.6839 219.107 20.56 219.107 20.56Z" fill="url(#paint36_linear_2_2486)"/>
<path d="M209.176 28.5709C209.176 28.5709 214.497 23.2699 221.633 22.1645C221.633 22.1644 213.577 20.8756 209.176 28.5709Z" fill="url(#paint37_linear_2_2486)"/>
<path d="M221.633 22.1644C213.752 22.2519 209.176 28.5709 209.176 28.5709C209.176 28.5709 214.497 23.2699 221.633 22.1644Z" fill="url(#paint38_linear_2_2486)"/>
<path d="M211.608 28.2444C211.608 28.2444 218.236 21.1326 224.914 24.8589C224.914 24.8589 217.882 23.2233 211.608 28.2444Z" fill="url(#paint39_linear_2_2486)"/>
<path d="M224.914 24.8589C217.27 22.3146 211.608 28.2444 211.608 28.2444C217.882 23.2233 224.914 24.8589 224.914 24.8589Z" fill="url(#paint40_linear_2_2486)"/>
<path d="M214.046 28.1334C214.046 28.1334 218.655 23.3369 225.77 27.3969C225.77 27.3969 218.59 25.8277 214.046 28.1334Z" fill="url(#paint41_linear_2_2486)"/>
<path d="M225.77 27.3969C219.001 24.7003 214.046 28.1335 214.046 28.1335C218.59 25.8278 225.77 27.3969 225.77 27.3969Z" fill="url(#paint42_linear_2_2486)"/>
<path d="M202.279 31.8393C202.279 31.8393 207.361 37.7645 213.545 38.5874C213.545 38.5874 205.421 40.4362 202.279 31.8393Z" fill="url(#paint43_linear_2_2486)"/>
<path d="M213.545 38.5874C213.545 38.5874 206.921 39.4414 202.279 31.8393C202.279 31.8393 207.361 37.7645 213.545 38.5874Z" fill="url(#paint44_linear_2_2486)"/>
<path d="M204.386 30.7313C204.386 30.7313 207.838 39.5279 216.819 37.6278C216.818 37.6278 210.112 37.4406 204.386 30.7313Z" fill="url(#paint45_linear_2_2486)"/>
<path d="M216.819 37.6278C209.19 38.4585 204.386 30.7314 204.386 30.7314C210.112 37.4407 216.819 37.6278 216.819 37.6278Z" fill="url(#paint46_linear_2_2486)"/>
<path d="M209.123 29.1606C209.123 29.1606 214.206 34.1846 221.3 34.9114C221.3 34.9114 213.174 36.6309 209.123 29.1606Z" fill="url(#paint47_linear_2_2486)"/>
<path d="M221.3 34.9114C213.413 35.2435 209.123 29.1606 209.123 29.1606C209.123 29.1606 214.206 34.1846 221.3 34.9114Z" fill="url(#paint48_linear_2_2486)"/>
<path d="M210.951 28.7498C210.951 28.7498 217.263 36.2378 224.538 32.7251C224.538 32.7252 217.07 34.1011 210.951 28.7498Z" fill="url(#paint49_linear_2_2486)"/>
<path d="M224.538 32.7252C216.356 34.9988 210.951 28.7499 210.951 28.7499C217.07 34.101 224.538 32.7252 224.538 32.7252Z" fill="url(#paint50_linear_2_2486)"/>
<path d="M206.746 29.8155C206.746 29.8155 208.528 36.433 218.813 36.8499C218.813 36.8498 210.095 34.2684 206.746 29.8155Z" fill="url(#paint51_linear_2_2486)"/>
<path d="M218.813 36.8498C209.794 35.4564 206.746 29.8154 206.746 29.8154C210.095 34.2684 218.813 36.8498 218.813 36.8498Z" fill="url(#paint52_linear_2_2486)"/>
<path d="M216.313 28.3935C216.313 28.3935 206.441 25.9942 194.448 36.1736C194.448 36.1736 196.364 35.6307 199.266 33.6221C204.213 30.1977 210.212 28.2196 216.313 28.3935Z" fill="url(#paint53_linear_2_2486)"/>
<path d="M216.313 28.3935C205.085 27.2826 194.636 36.0158 194.451 36.1713C194.45 36.172 194.449 36.1728 194.448 36.1735C194.448 36.1735 196.364 35.6307 199.266 33.622C204.213 30.1977 210.212 28.2196 216.313 28.3935Z" fill="url(#paint54_linear_2_2486)"/>
<path d="M208.769 41.4974C208.769 41.4974 216.571 43.2322 220.238 39.379C220.238 39.379 215.496 42.2596 208.769 41.4974Z" fill="url(#paint55_linear_2_2486)"/>
<path d="M220.238 39.379C215.378 42.9044 208.769 41.4974 208.769 41.4974C215.496 42.2596 220.238 39.379 220.238 39.379Z" fill="url(#paint56_linear_2_2486)"/>
<path d="M210.206 41.6545C210.206 41.6545 218.818 43.2853 222.703 38.9353C222.703 38.9353 217.605 42.2568 210.206 41.6545Z" fill="url(#paint57_linear_2_2486)"/>
<path d="M222.703 38.9353C217.499 42.9676 210.206 41.6545 210.206 41.6545C217.605 42.2568 222.703 38.9353 222.703 38.9353Z" fill="url(#paint58_linear_2_2486)"/>
<path d="M224.719 38.6688C224.18 38.9597 223.637 39.2435 223.079 39.4966C222.94 39.5601 222.802 39.6263 222.662 39.6883L222.241 39.8689L222.03 39.959L221.816 40.043L221.39 40.2109C220.816 40.4209 220.24 40.6238 219.653 40.7898C219.362 40.8802 219.065 40.9511 218.771 41.0308L218.326 41.1355L218.104 41.1874L217.88 41.233C216.689 41.4866 215.478 41.6407 214.265 41.7051C213.659 41.7389 213.051 41.7454 212.444 41.7348C211.837 41.7237 211.231 41.6839 210.627 41.6284C209.419 41.5123 208.222 41.3009 207.045 41.0152C205.867 40.7287 204.704 40.3899 203.555 40.0033C202.405 39.6158 201.271 39.1762 200.158 38.682C199.602 38.4338 199.049 38.1761 198.503 37.9016C197.956 37.6299 197.414 37.3426 196.883 37.0367L196.839 37.097C197.311 37.4991 197.818 37.8536 198.333 38.1969C198.592 38.366 198.854 38.5294 199.119 38.6904C199.384 38.8502 199.654 39.0024 199.925 39.1521C201.011 39.7483 202.141 40.2688 203.304 40.7061C204.467 41.1435 205.666 41.4895 206.885 41.7365C207.495 41.8579 208.109 41.9578 208.725 42.0396C209.341 42.1226 209.959 42.1859 210.579 42.2234C211.199 42.2633 211.819 42.287 212.44 42.2813C213.061 42.2753 213.681 42.2516 214.299 42.2001C215.535 42.093 216.762 41.8947 217.963 41.5967L218.188 41.5415L218.412 41.48L218.859 41.3564C219.154 41.2639 219.452 41.1805 219.743 41.0776C220.331 40.8864 220.905 40.6586 221.475 40.4244L221.899 40.2384L222.111 40.1454L222.319 40.0463L222.737 39.848C222.875 39.78 223.011 39.7084 223.149 39.6385C223.697 39.3588 224.229 39.0491 224.757 38.7333L224.719 38.6688Z" fill="url(#paint59_linear_2_2486)"/>
<path d="M196.883 37.0367C197.414 37.3426 197.956 37.6299 198.503 37.9016C199.049 38.1761 199.602 38.4338 200.158 38.682C201.271 39.1763 202.405 39.6159 203.555 40.0033C204.704 40.39 205.867 40.7287 207.045 41.0152C208.222 41.301 209.419 41.5123 210.627 41.6284C211.231 41.684 211.837 41.7237 212.444 41.7348C213.051 41.7453 213.659 41.7389 214.265 41.7051C215.478 41.6408 216.689 41.4867 217.88 41.2331L218.104 41.1874L218.326 41.1355L218.771 41.0309C219.065 40.9511 219.362 40.8803 219.653 40.7898C220.24 40.6239 220.816 40.4208 221.39 40.2109L221.817 40.043L222.03 39.959L222.241 39.8689L222.662 39.6883C222.802 39.6263 222.94 39.5602 223.079 39.4966C223.637 39.2435 224.18 38.9596 224.719 38.6688C224.719 38.6688 212.311 47.2832 196.883 37.0367Z" fill="url(#paint60_linear_2_2486)"/>
<path d="M206.448 41.6713C206.448 41.6713 213.34 44.5157 219.765 43.372C219.765 43.3719 213.703 46.7583 206.448 41.6713Z" fill="url(#paint61_linear_2_2486)"/>
<path d="M219.765 43.372C213.201 45.5712 206.448 41.6713 206.448 41.6713C206.448 41.6713 213.34 44.5158 219.765 43.372Z" fill="url(#paint62_linear_2_2486)"/>
<path d="M209.165 42.0858C209.165 42.0858 216.472 43.569 222.563 41.2252C222.563 41.2252 217.254 45.7018 209.165 42.0858Z" fill="url(#paint63_linear_2_2486)"/>
<path d="M222.563 41.2253C216.536 44.6316 209.165 42.0859 209.165 42.0859C209.165 42.0859 216.472 43.569 222.563 41.2253Z" fill="url(#paint64_linear_2_2486)"/>
<path d="M212.542 42.2586C212.542 42.2586 219.696 41.8959 224.623 39.2859C224.623 39.2859 221.034 43.1293 212.542 42.2586Z" fill="url(#paint65_linear_2_2486)"/>
<path d="M224.623 39.2859C220.063 42.5691 212.542 42.2586 212.542 42.2586C212.542 42.2586 219.696 41.8959 224.623 39.2859Z" fill="url(#paint66_linear_2_2486)"/>
</g>
<path d="M64.78 30.112C64.456 34.144 63.34 38.14 61.396 41.704C59.776 44.62 57.364 47.428 54.556 49.336C53.152 50.308 51.604 51.136 49.948 51.676C49.12 51.928 48.184 52.216 47.32 51.964C46.636 51.784 46.096 51.172 45.808 50.452C45.052 48.616 45.952 46.6 46.96 45.052C47.932 43.576 49.084 42.208 50.416 40.984C50.488 40.948 50.56 40.876 50.596 40.804C50.704 41.632 50.812 42.46 50.884 43.324C50.884 44.908 50.92 46.528 50.956 48.148C50.956 48.364 50.956 48.544 50.992 48.796C51.028 49.372 51.712 49.732 52.216 49.804C52.684 49.876 53.404 49.768 53.368 49.156C53.26 45.7 53.224 42.244 53.26 38.788C53.728 38.464 54.232 38.176 54.736 37.888C56.32 37.06 58.012 36.448 59.776 36.088C60.604 35.908 61.432 35.764 62.296 35.692C62.98 35.62 62.476 34.9 61.972 34.972C60.1 35.116 58.3 35.512 56.536 36.196C55.384 36.664 54.304 37.168 53.26 37.744C53.296 32.992 53.44 28.24 53.62 23.524C53.728 21.328 53.836 19.168 53.944 17.008C54.988 16.108 56.248 15.424 57.616 15.172C57.976 15.1 58.336 15.1 58.696 15.1C58.876 15.1 58.984 15.1 59.164 15.136C59.236 15.136 59.344 15.172 59.452 15.172C59.488 15.172 59.704 15.244 59.704 15.244C59.884 15.28 60.064 15.352 60.244 15.388C60.28 15.424 60.316 15.424 60.352 15.424C60.208 15.388 60.244 15.388 60.496 15.496C60.532 15.532 60.568 15.532 60.568 15.532C60.604 15.532 60.604 15.568 60.604 15.568C60.748 15.64 60.892 15.712 61 15.784C61.108 15.82 61.18 15.856 61.252 15.928C61.252 15.928 61.252 15.928 61.288 15.928C61.324 15.964 61.36 16 61.396 16.036C62.008 16.504 62.332 16.828 62.8 17.548C62.836 17.584 62.872 17.656 62.908 17.728L62.98 17.872C63.052 17.944 63.088 18.016 63.124 18.088C63.088 18.016 63.088 18.016 63.124 18.124C63.196 18.196 63.232 18.268 63.268 18.376C63.448 18.736 63.628 19.096 63.772 19.492C64.348 20.968 64.636 22.408 64.78 24.064C64.96 26.08 64.924 28.096 64.78 30.112ZM50.416 28.528C50.272 26.44 50.308 24.316 50.812 22.3C51.1 21.112 51.532 20.032 52.18 19.024C51.784 22.264 51.496 25.504 51.28 28.744C51.172 30.652 51.1 32.56 51.028 34.468C50.776 32.488 50.524 30.508 50.416 28.528ZM67.48 27.664C67.48 25.756 67.336 23.848 66.904 22.012C66.472 20.284 65.86 18.556 64.744 17.152C63.592 15.676 62.044 14.524 60.208 14.092C57.868 13.552 55.492 14.344 53.62 15.784C53.512 15.712 53.404 15.676 53.332 15.676C53.116 15.604 52.612 15.604 52.576 15.892C52.54 16.216 52.504 16.504 52.468 16.792C52 17.296 51.568 17.836 51.208 18.376C48.868 22.012 49.084 26.656 49.516 30.76C49.84 33.712 50.164 36.628 50.488 39.544C49.3 40.444 48.256 41.488 47.356 42.604C46.096 44.116 44.8 45.916 44.44 47.896C44.08 49.66 44.62 51.82 46.276 52.756C48.256 53.872 50.704 53.188 52.684 52.432C56.248 51.1 59.524 48.688 61.9 45.7C64.492 42.388 66.112 38.464 66.904 34.324C67.3 32.128 67.516 29.896 67.48 27.664ZM75.3978 50.452C77.3418 50.452 79.6098 49.66 81.4098 48.688C82.1658 48.328 82.9938 47.896 83.6058 47.284C83.6778 47.212 83.6778 47.176 83.6778 47.104C83.6778 46.744 83.2458 46.528 82.9218 46.528C82.0218 46.708 81.5538 47.104 80.6898 47.5C78.9258 48.292 76.9458 49.048 75.1098 49.048C74.7138 49.048 74.7858 49.048 74.2098 48.94L73.7778 48.724C73.7778 48.688 73.7418 48.652 73.7058 48.652L73.1298 47.86C73.1298 47.86 73.0218 47.716 73.0218 47.68C72.5538 46.852 72.3378 45.952 72.3378 45.016C72.4458 43.468 72.4818 42.784 73.0578 41.164C75.2898 40.948 77.4858 39.436 78.7818 37.672C79.2138 37.096 79.6458 36.448 79.6818 35.728C79.6818 35.116 79.2498 34.54 78.7818 34.18C78.2058 33.712 77.6298 33.46 76.8738 33.46C75.7218 33.46 74.7858 34.108 73.8857 34.792C71.2578 36.88 69.6738 40.984 69.6738 44.476C69.6738 45.34 69.7817 46.204 70.1058 47.032C70.9697 49.3 73.1658 50.452 75.3978 50.452ZM73.3457 40.372C74.1378 38.176 75.6498 36.196 77.6298 35.296C77.9538 35.116 77.7738 35.188 78.1698 35.08C78.3498 35.08 78.4218 35.404 78.4218 35.548C78.4218 35.98 78.0977 36.484 77.9178 36.772C76.8738 38.644 75.1818 39.652 73.3457 40.372ZM88.7616 46.276C89.1576 46.276 89.5536 46.132 89.7336 45.772C90.9936 42.964 92.1456 40.156 93.3336 37.348C93.6216 38.5 93.9456 39.616 94.3776 40.732C95.1696 42.928 96.2136 46.132 99.0216 46.132C99.2736 46.132 99.5976 46.096 99.8856 45.988C101.146 45.412 101.722 44.116 102.19 42.82C102.874 40.768 103.234 38.572 103.234 36.412C103.162 34.504 103.09 33.28 102.838 31.444C102.658 30.004 102.478 28.528 102.01 27.16C101.866 26.692 101.11 26.332 100.498 26.332C100.066 26.332 99.6696 26.548 99.6696 27.016C99.6696 28.096 99.8856 29.212 100.03 30.292C100.462 32.956 100.642 35.512 100.642 38.212C100.642 38.932 100.642 39.652 100.606 40.372C100.57 41.344 100.462 42.352 100.174 43.288C99.9576 43.9 99.4896 44.692 98.8416 44.836C98.8056 44.836 98.7336 44.836 98.6976 44.872C98.5896 44.8 98.5896 44.872 98.4456 44.728C97.4016 43.396 97.2936 42.892 96.6096 41.092C95.7096 38.824 95.0256 36.448 94.6656 34.036C94.5936 33.532 93.9096 33.1 93.3336 33.1C93.0456 33.1 92.7576 33.244 92.6136 33.532L88.4736 41.92C88.8696 37.78 88.6896 39.688 89.1936 35.62C89.4096 34.144 89.5536 33.028 89.5536 31.624C89.5536 31.48 89.3016 31.336 89.0856 31.336C89.0136 31.336 88.9416 31.336 88.9056 31.408C88.6176 31.876 88.2936 32.308 88.0416 32.812C87.7896 33.316 87.6096 33.82 87.4296 34.36C86.6736 36.808 85.8456 40.048 85.8456 42.604C85.8456 44.188 86.5656 45.52 88.1136 46.168C88.2936 46.24 88.5456 46.276 88.7616 46.276ZM111.117 50.452C113.061 50.452 115.329 49.66 117.129 48.688C117.885 48.328 118.713 47.896 119.325 47.284C119.397 47.212 119.397 47.176 119.397 47.104C119.397 46.744 118.965 46.528 118.641 46.528C117.741 46.708 117.273 47.104 116.409 47.5C114.645 48.292 112.665 49.048 110.829 49.048C110.433 49.048 110.505 49.048 109.929 48.94L109.497 48.724C109.497 48.688 109.461 48.652 109.425 48.652L108.849 47.86C108.849 47.86 108.741 47.716 108.741 47.68C108.273 46.852 108.057 45.952 108.057 45.016C108.165 43.468 108.201 42.784 108.777 41.164C111.009 40.948 113.205 39.436 114.501 37.672C114.933 37.096 115.365 36.448 115.401 35.728C115.401 35.116 114.969 34.54 114.501 34.18C113.925 33.712 113.349 33.46 112.593 33.46C111.441 33.46 110.505 34.108 109.604 34.792C106.977 36.88 105.393 40.984 105.393 44.476C105.393 45.34 105.5 46.204 105.825 47.032C106.688 49.3 108.885 50.452 111.117 50.452ZM109.064 40.372C109.857 38.176 111.369 36.196 113.349 35.296C113.673 35.116 113.493 35.188 113.889 35.08C114.069 35.08 114.141 35.404 114.141 35.548C114.141 35.98 113.816 36.484 113.637 36.772C112.593 38.644 110.901 39.652 109.064 40.372ZM170.916 47.356C171.78 47.356 172.356 46.888 172.86 46.24C174.588 44.008 175.344 41.56 175.344 38.824C175.344 36.628 174.984 33.928 173.616 32.2C172.572 30.904 171.276 30.4 169.692 30.364C168.504 30.364 167.388 30.832 166.776 31.912L166.74 32.056C166.74 32.344 167.244 32.632 167.604 32.632C167.784 32.632 167.928 32.56 168 32.452C168.504 31.696 169.332 31.3 170.16 31.3C172.464 31.3 173.652 33.892 173.652 36.34C173.652 39.364 172.176 42.712 170.556 44.8C170.52 44.836 170.484 44.872 170.484 44.908C170.412 44.728 170.376 44.512 170.34 44.26C170.088 42.964 170.016 42.172 170.016 40.804C170.016 38.896 170.232 36.7 171.024 34.936C171.096 34.684 171.204 34.396 171.384 34.252C171.528 34.108 171.564 34.144 171.672 34.036L171.852 34.072C172.14 34.072 172.356 33.856 172.356 33.64C172.356 33.172 171.348 32.776 170.664 32.776C168.108 32.776 167.424 36.952 167.316 40.336C167.316 41.596 167.46 42.856 167.676 44.08C167.856 44.836 168.036 45.52 168.468 46.132C168.972 46.852 169.908 47.356 170.808 47.356H170.916ZM187.434 49.012C188.01 49.012 188.262 48.4 188.262 47.86C188.226 46.492 188.298 46.42 188.118 45.052C187.686 40.156 187.758 40.66 187.146 36.16C187.074 35.548 186.858 34.936 186.786 34.324C186.678 33.784 186.246 33.712 185.742 33.64C185.49 33.64 185.238 33.712 185.166 33.928C184.95 34.684 184.554 35.368 184.194 36.052C182.862 38.608 181.962 40.156 180.198 42.892C180.198 38.212 180.27 39.724 180.45 34.828C180.45 34.576 180.378 34.288 180.306 34.036C180.198 33.532 179.838 33.46 179.334 33.352C179.118 33.352 178.938 33.424 178.866 33.532C178.578 33.928 178.362 34.288 178.254 34.756C177.57 37.456 177.498 38.5 177.498 41.452C177.498 42.496 177.534 43.54 177.642 44.584C177.714 45.772 178.686 46.6 179.874 46.6L180.378 46.528C181.278 46.312 181.71 45.448 182.178 44.728C183.51 42.568 184.122 41.344 185.166 38.86C185.346 42.784 185.382 43.72 185.814 47.248C185.886 48.112 186.426 49.012 187.434 49.012ZM192.163 47.068C192.379 47.068 192.595 46.996 192.739 46.888C194.503 45.664 194.611 43.468 195.367 41.452C195.763 40.372 196.195 39.328 196.699 38.32C197.203 37.24 197.851 35.656 198.535 34.792C198.607 34.756 198.679 34.684 198.715 34.612C198.823 34.612 198.823 34.684 198.895 34.684C198.895 34.72 198.967 34.756 199.003 34.792C199.003 34.792 199.615 35.224 200.011 35.224C200.407 35.224 200.659 34.9 200.659 34.54C200.659 33.532 199.183 33.028 198.283 33.028C197.311 33.1 196.915 33.28 196.195 33.892C195.763 34.288 195.475 34.828 195.187 35.332C194.503 36.448 193.927 37.636 193.423 38.824C193.423 38.392 193.423 37.96 193.459 37.528C193.459 36.232 193.423 36.556 193.423 35.368C193.423 35.044 193.315 34.792 193.243 34.468C193.171 33.856 192.631 33.748 191.983 33.64C191.443 33.64 191.191 34.216 191.119 34.792C191.011 35.764 190.975 35.98 190.903 36.916C190.687 40.084 190.543 43.18 190.435 45.88C190.435 46.636 191.479 47.068 192.163 47.068Z" fill="white"/>
<g clip-path="url(#clip2_2_2486)">
<path d="M51.9284 17.2453C51.9284 17.2453 51.0922 20.2253 47 18.4346C47 18.4346 49.1087 14.2631 51.9284 17.2453Z" fill="url(#paint67_linear_2_2486)"/>
<path d="M47 18.4346C48.3447 17.8768 51.9284 17.2453 51.9284 17.2453C49.1087 14.2631 47 18.4346 47 18.4346Z" fill="url(#paint68_linear_2_2486)"/>
<path d="M53.7283 16.8635C53.7283 16.8635 56.0999 18.8523 52.7835 21.8445C52.7835 21.8446 49.8498 18.2057 53.7283 16.8635Z" fill="url(#paint69_linear_2_2486)"/>
<path d="M52.7835 21.8446C52.8287 20.3895 53.7283 16.8635 53.7283 16.8635C49.8498 18.2057 52.7835 21.8446 52.7835 21.8446Z" fill="url(#paint70_linear_2_2486)"/>
<path d="M55.1431 17.1124C55.1431 17.1124 55.8169 20.1333 60 18.5667C60 18.5667 58.1202 14.2872 55.1431 17.1124Z" fill="url(#paint71_linear_2_2486)"/>
<path d="M60 18.5667C58.6875 17.937 55.1432 17.1123 55.1432 17.1123C58.1202 14.2872 60 18.5667 60 18.5667Z" fill="url(#paint72_linear_2_2486)"/>
<path d="M51.9285 17.2453C51.2052 16.4803 50.5287 16.1862 49.9226 16.1714L49.2888 17.6612L50.4415 18.8139C50.5446 18.7738 50.6412 18.7287 50.7313 18.6797C51.6688 18.1701 51.9285 17.2453 51.9285 17.2453Z" fill="url(#paint73_linear_2_2486)"/>
<path d="M53.7283 16.8635C52.3034 17.3566 51.798 18.1597 51.7287 18.9785L53.6658 20.9155C55.6172 18.4477 53.7283 16.8635 53.7283 16.8635Z" fill="url(#paint74_linear_2_2486)"/>
<path d="M55.1431 17.1124C55.1431 17.1124 55.8169 20.1333 60 18.5667C60 18.5667 58.1202 14.2872 55.1431 17.1124Z" fill="url(#paint75_linear_2_2486)"/>
<path d="M52.8003 13.8633C52.8003 13.8633 51.3287 11.1001 52.2573 10.9447C53.186 10.7892 52.3972 10.091 53.4175 10.2628C54.4378 10.4346 53.9976 9.92184 55.1589 10.1068C56.3202 10.2917 57.4339 12.091 56.0586 13.1224C55.1104 13.8335 53.6323 15.8529 52.8003 13.8633Z" fill="url(#paint76_radial_2_2486)"/>
<path d="M52.2728 11.3377C52.2551 11.3117 52.2327 11.2893 52.2067 11.2716L52.1993 11.2642L52.1996 11.2672C52.1608 11.2425 52.115 11.2281 52.0656 11.2281C52.0306 11.2281 51.9976 11.2357 51.9674 11.2487C51.9671 11.2503 51.9667 11.252 51.9664 11.2536C51.9575 11.2976 51.9524 11.3452 51.9508 11.396C51.9508 11.398 51.9506 11.3999 51.9506 11.4019C51.9499 11.4276 51.9501 11.454 51.9511 11.4812C51.9512 11.4829 51.9512 11.4846 51.9513 11.4864C51.9536 11.5419 51.9591 11.6003 51.9677 11.6611C51.9679 11.6628 51.9682 11.6645 51.9684 11.6663C51.9817 11.7599 52.0018 11.8589 52.0272 11.9611C52.2366 12.8047 52.8003 13.8633 52.8003 13.8633C53.3589 15.1991 54.2087 14.7279 54.9938 14.0587L52.2728 11.3377ZM52.2259 11.6715C52.2326 11.666 52.2388 11.6601 52.2448 11.654L52.2515 11.7112C52.243 11.6981 52.2344 11.6846 52.2259 11.6715Z" fill="url(#paint77_linear_2_2486)"/>
<path d="M53.6794 14.6617C53.809 14.6593 53.933 14.6086 54.0326 14.5257C54.2663 14.3314 54.9037 13.7634 55.2097 13.1134C55.5884 12.3088 54.8331 13.4901 54.3751 13.7776C53.917 14.065 54.6079 13.1718 54.5603 12.3308C54.5127 11.4898 54.0085 13.5556 53.6901 13.7809C53.3718 14.0062 53.6644 13.2148 53.4763 12.8296C53.2883 12.4445 53.1527 13.5511 53.1939 13.7756C53.2351 14 52.7729 13.2429 52.6036 13.2011C52.4343 13.1592 53.0356 14.2478 53.3145 14.5171C53.434 14.6326 53.5667 14.6638 53.6794 14.6617Z" fill="url(#paint78_linear_2_2486)"/>
<path d="M53.1276 14.3796C53.1276 14.3796 53.0122 11.8781 51.1649 11.6087C49.3176 11.3393 50.1643 12.2245 49.7025 12.3014C49.2406 12.3784 48.2785 12.2245 48.2015 13.6099C48.1246 14.9954 53.2815 16.4578 53.1276 14.3796Z" fill="url(#paint79_radial_2_2486)"/>
<path d="M52.452 15.3187C52.7942 15.21 52.9734 14.8337 52.8546 14.495C52.7018 14.0595 52.46 13.4157 52.2702 13.1105C51.9695 12.6267 52.231 13.5421 52.2572 13.8429C52.2833 14.1437 51.7341 13.2151 51.211 12.9013C50.6879 12.5874 50.8187 13.0713 51.211 13.3067C51.6033 13.5421 51.211 13.5813 50.6355 13.359C50.0601 13.1367 50.1517 13.5028 51.211 13.9867C52.2702 14.4706 52.3487 14.9937 52.0087 14.7975C51.6687 14.6014 51.1063 14.4967 50.8448 14.5621C50.6998 14.5984 51.3994 15.0971 52.0403 15.3157C52.168 15.3593 52.3065 15.3634 52.4355 15.3239C52.4411 15.3222 52.4466 15.3205 52.452 15.3187Z" fill="url(#paint80_linear_2_2486)"/>
<path d="M52.7805 15.4554C52.6419 15.2612 52.4483 15.117 52.2301 15.0329C51.7679 14.8548 50.698 14.5485 49.5729 14.97C48.0759 15.5308 48.8503 16.2661 49.0968 16.3723C49.3432 16.4784 49.0049 16.9756 49.2441 17.5608C49.4832 18.1459 50.2569 18.0237 50.5588 18.4126C50.8606 18.8016 50.8096 19.1367 51.487 18.9998C52.1645 18.8629 52.3934 19.5151 52.8864 18.2184C53.2972 17.1377 53.2259 16.0789 52.7805 15.4554Z" fill="url(#paint81_radial_2_2486)"/>
<path d="M54.0468 14.3547C54.0468 14.3547 55.6653 12.6893 57.0902 13.0787C57.6024 13.2779 57.5299 13.8742 57.9222 13.9832C58.3144 14.0921 58.578 15.0031 58.1215 15.2177C57.665 15.4323 58.2007 16.3619 57.64 16.7152C57.0793 17.0684 52.3484 15.805 54.0468 14.3547Z" fill="url(#paint82_radial_2_2486)"/>
<path d="M57.646 16.7109L54.7197 13.7846C54.311 14.0829 54.0468 14.3547 54.0468 14.3547C52.6752 15.5258 55.4964 16.5751 56.9283 16.7496C56.9707 16.7548 57.0118 16.7591 57.0516 16.7627C57.0521 16.7628 57.0527 16.7629 57.0532 16.7629C57.0924 16.7665 57.1303 16.7692 57.1667 16.7712C57.1677 16.7713 57.1686 16.7713 57.1696 16.7714C57.2054 16.7733 57.2398 16.7744 57.2726 16.7748C57.274 16.7749 57.2753 16.7749 57.2766 16.7749C57.3089 16.7752 57.3396 16.7748 57.3687 16.7735C57.3702 16.7735 57.3718 16.7734 57.3733 16.7733C57.3875 16.7727 57.4013 16.7719 57.4146 16.7709C57.4159 16.7708 57.4171 16.7707 57.4184 16.7706C57.4307 16.7696 57.4426 16.7685 57.4542 16.7672C57.4557 16.767 57.4572 16.7669 57.4587 16.7667C57.4708 16.7653 57.4824 16.7637 57.4936 16.762C57.4955 16.7617 57.4973 16.7614 57.4992 16.761C57.5093 16.7594 57.519 16.7576 57.5284 16.7556C57.5297 16.7554 57.5309 16.7551 57.5322 16.7549C57.5422 16.7527 57.5517 16.7503 57.5608 16.7478C57.5628 16.7473 57.5647 16.7467 57.5666 16.7462C57.5749 16.7438 57.583 16.7412 57.5905 16.7385C57.5913 16.7382 57.5921 16.738 57.5928 16.7377C57.6008 16.7348 57.6082 16.7316 57.6153 16.7283C57.617 16.7276 57.6187 16.7268 57.6203 16.726C57.6273 16.7226 57.6339 16.7191 57.6399 16.7153C57.6399 16.7153 57.6399 16.7152 57.6399 16.7152C57.6421 16.7138 57.6439 16.7123 57.646 16.7109Z" fill="url(#paint83_linear_2_2486)"/>
<path d="M53.7564 14.9751C53.7858 14.8489 53.8614 14.7383 53.9632 14.6582C54.2021 14.4703 54.8908 13.9657 55.5904 13.8024C56.4564 13.6003 55.1433 14.0919 54.7664 14.4797C54.3895 14.8675 55.4075 14.3787 56.2199 14.6012C57.0324 14.8236 54.9068 14.8846 54.6199 15.1488C54.3331 15.413 55.1681 15.2924 55.5054 15.5568C55.8427 15.8212 54.7322 15.7224 54.5214 15.6352C54.3105 15.5479 54.9541 16.1583 54.9597 16.3326C54.9652 16.5069 54.0265 15.6912 53.8214 15.3622C53.7335 15.2212 53.7308 15.0848 53.7564 14.9751Z" fill="url(#paint84_linear_2_2486)"/>
<path d="M53.6937 15.1874C53.6937 15.1874 55.5681 14.582 56.6706 15.896C57.052 16.4358 56.7166 16.4844 57.0609 17.0016C57.4053 17.5187 57.1028 17.9695 56.6311 18.2399C56.1594 18.5103 56.0592 19.5438 55.2275 19.3638C54.3959 19.1839 54.3701 18.8115 53.9963 18.9639C53.6226 19.1162 53.0867 19.118 52.8969 18.0592C52.7071 17.0004 52.9846 15.3883 53.6937 15.1874Z" fill="url(#paint85_radial_2_2486)"/>
<path d="M52.7404 15.3898C52.65 15.2969 52.5282 15.2412 52.3997 15.2252C52.0981 15.1876 51.2478 15.1111 50.5643 15.3325C49.7183 15.6065 51.0967 15.3495 51.6197 15.487C52.1427 15.6246 51.0185 15.7315 50.4376 16.3415C49.8566 16.9514 51.7085 15.9063 52.0905 15.9844C52.4726 16.0625 51.6952 16.3904 51.5429 16.791C51.3906 17.1916 52.2906 16.5336 52.4261 16.35C52.5616 16.1665 52.3255 17.0214 52.4108 17.1736C52.496 17.3257 52.8788 16.1425 52.8846 15.7548C52.8871 15.5887 52.819 15.4706 52.7404 15.3898Z" fill="url(#paint86_linear_2_2486)"/>
<path d="M53.2524 15.6488C53.3363 15.2998 53.6987 15.094 54.0451 15.1882C54.4906 15.3093 55.15 15.5043 55.468 15.6716C55.9722 15.9369 55.0404 15.7417 54.7385 15.7372C54.4366 15.7327 55.2247 16.2189 55.5753 16.7182C55.9259 17.2174 55.5097 17.055 55.2468 16.6806C54.9839 16.3062 54.8244 16.6149 55.3375 17.3199C55.7005 17.8187 55.1999 17.7506 54.5898 16.8026C53.9595 15.8233 53.506 15.7281 53.698 16.0704C53.9139 16.4553 54.1575 16.7435 54.111 17.0091C54.0853 17.1564 53.549 16.6827 53.285 16.0592C53.2324 15.9349 53.2184 15.7971 53.2485 15.6655C53.2498 15.66 53.2511 15.6544 53.2524 15.6488Z" fill="url(#paint87_linear_2_2486)"/>
<path d="M57.0335 16.959C57.0307 16.9546 57.0281 16.9503 57.0255 16.946C57.0197 16.9366 57.0142 16.9272 57.0088 16.9181C57.0061 16.9134 57.0033 16.9087 57.0007 16.904C56.9954 16.8947 56.9905 16.8856 56.9857 16.8766C56.9838 16.873 56.9817 16.8693 56.9798 16.8657C56.9739 16.8543 56.9683 16.8432 56.9631 16.8323C56.9605 16.8269 56.9582 16.8216 56.9558 16.8163C56.9531 16.8104 56.9504 16.8045 56.9479 16.7987C56.9454 16.793 56.943 16.7873 56.9407 16.7817C56.9386 16.7766 56.9367 16.7717 56.9348 16.7668C56.9326 16.761 56.9302 16.7552 56.9282 16.7496V16.7496C56.8188 16.448 56.979 16.3326 56.6706 15.8961C55.5681 14.582 53.6937 15.1875 53.6937 15.1875C53.3874 15.2742 52.9744 15.437 52.832 15.8919L55.9955 19.0635C56.0094 19.0459 56.0231 19.0279 56.0365 19.0096C56.0366 19.0094 56.0368 19.0091 56.037 19.0089C56.1078 18.912 56.1716 18.806 56.2352 18.703C56.2413 18.6932 56.2474 18.6834 56.2534 18.6736C56.2573 18.6674 56.2611 18.6613 56.2649 18.6552C56.2754 18.6385 56.2859 18.622 56.2964 18.6056C56.2981 18.603 56.2998 18.6004 56.3014 18.5979C56.3119 18.5817 56.3224 18.5658 56.333 18.5501C56.3347 18.5476 56.3365 18.545 56.3382 18.5425C56.3488 18.5268 56.3596 18.5114 56.3705 18.4964C56.372 18.4942 56.3736 18.4919 56.3753 18.4897C56.3866 18.4741 56.3981 18.4589 56.4097 18.444C56.4108 18.4426 56.4119 18.4411 56.4131 18.4397C56.4257 18.4237 56.4385 18.4082 56.4515 18.3933C56.4521 18.3927 56.4526 18.3922 56.4531 18.3916C56.4658 18.377 56.4788 18.3631 56.4921 18.3497C56.4933 18.3484 56.4946 18.3471 56.4959 18.3458C56.5087 18.3331 56.5216 18.3209 56.5349 18.3094C56.5364 18.3081 56.5379 18.3068 56.5394 18.3055C56.5528 18.2939 56.5666 18.2831 56.5807 18.2728C56.5819 18.272 56.5831 18.271 56.5843 18.2702C56.5995 18.2593 56.6151 18.2492 56.6311 18.24C56.8669 18.1048 57.0604 17.9245 57.152 17.7134C57.1691 17.6738 57.1827 17.6331 57.1923 17.5914C57.1955 17.5775 57.1983 17.5636 57.2005 17.5494C57.2051 17.5213 57.2079 17.4926 57.2087 17.4636C57.2129 17.3184 57.1685 17.1633 57.0608 17.0017C57.0511 16.987 57.0421 16.9729 57.0335 16.959Z" fill="url(#paint88_linear_2_2486)"/>
<path d="M50.7242 9.94152C50.7242 9.94152 52.2048 12.4197 52.2497 13.721C52.2946 15.0222 52.5388 15.9305 53.1014 16.002C53.664 16.0734 54.2014 15.2099 53.3374 13.5552C52.4735 11.9004 51.2623 10.254 50.9072 9.78809C50.5522 9.32214 50.4557 9.63668 50.7242 9.94152Z" fill="url(#paint89_linear_2_2486)"/>
<path d="M50.6808 10.1653C50.9597 10.1653 51.1858 9.93925 51.1858 9.66036C51.1858 9.38148 50.9597 9.1554 50.6808 9.1554C50.4019 9.1554 50.1758 9.38148 50.1758 9.66036C50.1758 9.93925 50.4019 10.1653 50.6808 10.1653Z" fill="url(#paint90_radial_2_2486)"/>
<path d="M50.9342 10.9047C51.0726 10.9047 51.1849 10.7924 51.1849 10.654C51.1849 10.5155 51.0726 10.4032 50.9342 10.4032C50.7957 10.4032 50.6834 10.5155 50.6834 10.654C50.6834 10.7924 50.7957 10.9047 50.9342 10.9047Z" fill="url(#paint91_radial_2_2486)"/>
<path d="M51.6637 10.7989C51.8022 10.7989 51.9144 10.6867 51.9144 10.5482C51.9144 10.4097 51.8022 10.2974 51.6637 10.2974C51.5252 10.2974 51.4129 10.4097 51.4129 10.5482C51.4129 10.6867 51.5252 10.7989 51.6637 10.7989Z" fill="url(#paint92_radial_2_2486)"/>
<path d="M51.357 11.6027C51.4955 11.6027 51.6078 11.4904 51.6078 11.352C51.6078 11.2135 51.4955 11.1012 51.357 11.1012C51.2185 11.1012 51.1063 11.2135 51.1063 11.352C51.1063 11.4904 51.2185 11.6027 51.357 11.6027Z" fill="url(#paint93_radial_2_2486)"/>
<path d="M52.0657 11.7297C52.2042 11.7297 52.3164 11.6174 52.3164 11.4789C52.3164 11.3404 52.2042 11.2281 52.0657 11.2281C51.9272 11.2281 51.8149 11.3404 51.8149 11.4789C51.8149 11.6174 51.9272 11.7297 52.0657 11.7297Z" fill="url(#paint94_radial_2_2486)"/>
</g>
</g>
</g>
<defs>
<filter id="filter0_d_2_2486" x="0" y="-13" width="261" height="108" filterUnits="userSpaceOnUse" color-interpolation-filters="sRGB">
<feFlood flood-opacity="0" result="BackgroundImageFix"/>
<feColorMatrix in="SourceAlpha" type="matrix" values="0 0 0 0 0 0 0 0 0 0 0 0 0 0 0 0 0 0 127 0" result="hardAlpha"/>
<feOffset dy="4"/>
<feGaussianBlur stdDeviation="10"/>
<feColorMatrix type="matrix" values="0 0 0 0 0 0 0 0 0 0 0 0 0 0 0 0 0 0 0.25 0"/>
<feBlend mode="normal" in2="BackgroundImageFix" result="effect1_dropShadow_2_2486"/>
<feBlend mode="normal" in="SourceGraphic" in2="effect1_dropShadow_2_2486" result="shape"/>
</filter>
<filter id="filter1_d_2_2486" x="16" y="3" width="229" height="76" filterUnits="userSpaceOnUse" color-interpolation-filters="sRGB">
<feFlood flood-opacity="0" result="BackgroundImageFix"/>
<feColorMatrix in="SourceAlpha" type="matrix" values="0 0 0 0 0 0 0 0 0 0 0 0 0 0 0 0 0 0 127 0" result="hardAlpha"/>
<feOffset dy="4"/>
<feGaussianBlur stdDeviation="2"/>
<feColorMatrix type="matrix" values="0 0 0 0 0 0 0 0 0 0 0 0 0 0 0 0 0 0 0.25 0"/>
<feBlend mode="normal" in2="BackgroundImageFix" result="effect1_dropShadow_2_2486"/>
<feBlend mode="normal" in="SourceGraphic" in2="effect1_dropShadow_2_2486" result="shape"/>
</filter>
<linearGradient id="paint0_linear_2_2486" x1="67" y1="0" x2="67" y2="11" gradientUnits="userSpaceOnUse">
<stop stop-color="#FFD14B"/>
<stop offset="1" stop-color="#FFAF00"/>
</linearGradient>
<linearGradient id="paint1_linear_2_2486" x1="67" y1="0" x2="67" y2="11" gradientUnits="userSpaceOnUse">
<stop stop-color="white"/>
<stop offset="1" stop-color="white" stop-opacity="0"/>
</linearGradient>
<linearGradient id="paint2_linear_2_2486" x1="96.5" y1="0" x2="96.5" y2="11" gradientUnits="userSpaceOnUse">
<stop stop-color="#FFD14B"/>
<stop offset="1" stop-color="#FFAF00"/>
</linearGradient>
<linearGradient id="paint3_linear_2_2486" x1="96.5" y1="0" x2="96.5" y2="11" gradientUnits="userSpaceOnUse">
<stop stop-color="white"/>
<stop offset="1" stop-color="white" stop-opacity="0"/>
</linearGradient>
<linearGradient id="paint4_linear_2_2486" x1="67" y1="0" x2="67" y2="11" gradientUnits="userSpaceOnUse">
<stop stop-color="#FFD14B"/>
<stop offset="1" stop-color="#FFAF00"/>
</linearGradient>
<linearGradient id="paint5_linear_2_2486" x1="67" y1="0" x2="67" y2="11" gradientUnits="userSpaceOnUse">
<stop stop-color="white"/>
<stop offset="1" stop-color="white" stop-opacity="0"/>
</linearGradient>
<linearGradient id="paint6_linear_2_2486" x1="67" y1="0" x2="67" y2="11" gradientUnits="userSpaceOnUse">
<stop stop-color="#FFD14B"/>
<stop offset="1" stop-color="#FFAF00"/>
</linearGradient>
<linearGradient id="paint7_linear_2_2486" x1="67" y1="0" x2="67" y2="11" gradientUnits="userSpaceOnUse">
<stop stop-color="white"/>
<stop offset="1" stop-color="white" stop-opacity="0"/>
</linearGradient>
<linearGradient id="paint8_linear_2_2486" x1="135.927" y1="40.8994" x2="137.101" y2="42.0739" gradientUnits="userSpaceOnUse">
<stop stop-color="#979797"/>
<stop offset="1"/>
</linearGradient>
<linearGradient id="paint9_linear_2_2486" x1="142.663" y1="40.2775" x2="142.663" y2="32.5962" gradientUnits="userSpaceOnUse">
<stop stop-color="#FF9111" stop-opacity="0"/>
<stop offset="1" stop-color="#F26500"/>
</linearGradient>
<linearGradient id="paint10_linear_2_2486" x1="143.634" y1="13.5748" x2="147.13" y2="25.2015" gradientUnits="userSpaceOnUse">
<stop stop-color="#FFA981"/>
<stop offset="0.428" stop-color="#FF8666"/>
<stop offset="1" stop-color="#FF5C45"/>
</linearGradient>
<linearGradient id="paint11_linear_2_2486" x1="151.313" y1="26.7184" x2="164.51" y2="39.9154" gradientUnits="userSpaceOnUse">
<stop stop-color="#FFA981"/>
<stop offset="0.428" stop-color="#FF8666"/>
<stop offset="1" stop-color="#FF5C45"/>
</linearGradient>
<linearGradient id="paint12_linear_2_2486" x1="146.426" y1="23.2982" x2="154.701" y2="31.5738" gradientUnits="userSpaceOnUse">
<stop stop-color="#FFA981"/>
<stop offset="0.428" stop-color="#FF8666"/>
<stop offset="1" stop-color="#FF5C45"/>
</linearGradient>
<linearGradient id="paint13_linear_2_2486" x1="161.604" y1="27.8773" x2="166.048" y2="21.3903" gradientUnits="userSpaceOnUse">
<stop stop-color="#FFA981" stop-opacity="0"/>
<stop offset="1" stop-color="#B82934"/>
</linearGradient>
<linearGradient id="paint14_linear_2_2486" x1="145.225" y1="20.2772" x2="152.843" y2="33.292" gradientUnits="userSpaceOnUse">
<stop stop-color="#EFFBFF"/>
<stop offset="0.235" stop-color="#D5EBF7"/>
<stop offset="0.487" stop-color="#C2DFF1"/>
<stop offset="0.742" stop-color="#B6D7ED"/>
<stop offset="1" stop-color="#B2D5EC"/>
</linearGradient>
<linearGradient id="paint15_linear_2_2486" x1="153.858" y1="30.3312" x2="165.048" y2="39.4574" gradientUnits="userSpaceOnUse">
<stop stop-color="#EFFBFF"/>
<stop offset="0.317" stop-color="#D7ECF8"/>
<stop offset="0.747" stop-color="#BCDBEF"/>
<stop offset="1" stop-color="#B2D5EC"/>
</linearGradient>
<linearGradient id="paint16_linear_2_2486" x1="146.749" y1="31.2495" x2="140.204" y2="37.795" gradientUnits="userSpaceOnUse">
<stop stop-color="#FFA981" stop-opacity="0"/>
<stop offset="1" stop-color="#B82934"/>
</linearGradient>
<linearGradient id="paint17_linear_2_2486" x1="138.514" y1="25.8559" x2="132.931" y2="31.4393" gradientUnits="userSpaceOnUse">
<stop stop-color="#B2D5EC" stop-opacity="0"/>
<stop offset="1" stop-color="#7797B0"/>
</linearGradient>
<linearGradient id="paint18_linear_2_2486" x1="152.138" y1="39.4797" x2="146.555" y2="45.0624" gradientUnits="userSpaceOnUse">
<stop stop-color="#B2D5EC" stop-opacity="0"/>
<stop offset="1" stop-color="#7797B0"/>
</linearGradient>
<linearGradient id="paint19_linear_2_2486" x1="135.654" y1="20.154" x2="129.108" y2="26.7002" gradientUnits="userSpaceOnUse">
<stop stop-color="#FFA981" stop-opacity="0"/>
<stop offset="1" stop-color="#B82934"/>
</linearGradient>
<linearGradient id="paint20_linear_2_2486" x1="157.833" y1="42.3339" x2="151.287" y2="48.8794" gradientUnits="userSpaceOnUse">
<stop stop-color="#FFA981" stop-opacity="0"/>
<stop offset="1" stop-color="#B82934"/>
</linearGradient>
<linearGradient id="paint21_linear_2_2486" x1="160.02" y1="25.455" x2="162.926" y2="17.5246" gradientUnits="userSpaceOnUse">
<stop stop-color="#B2D5EC" stop-opacity="0"/>
<stop offset="1" stop-color="#7797B0"/>
</linearGradient>
<linearGradient id="paint22_linear_2_2486" x1="160.107" y1="16.8485" x2="161.343" y2="18.0859" gradientUnits="userSpaceOnUse">
<stop stop-color="#D7D7D7"/>
<stop offset="1"/>
</linearGradient>
<linearGradient id="paint23_linear_2_2486" x1="204.622" y1="20.107" x2="199.741" y2="33.0942" gradientUnits="userSpaceOnUse">
<stop offset="0.003" stop-color="#FFE000"/>
<stop offset="0.142" stop-color="#DCDE00"/>
<stop offset="0.274" stop-color="#C3DD00"/>
<stop offset="0.393" stop-color="#B4DC00"/>
<stop offset="0.491" stop-color="#AFDC00"/>
<stop offset="0.715" stop-color="#AEDA00"/>
<stop offset="0.796" stop-color="#A8D300"/>
<stop offset="0.854" stop-color="#9FC800"/>
<stop offset="0.901" stop-color="#91B700"/>
<stop offset="0.941" stop-color="#80A100"/>
<stop offset="0.975" stop-color="#6B8600"/>
<stop offset="1" stop-color="#586E00"/>
</linearGradient>
<linearGradient id="paint24_linear_2_2486" x1="204.551" y1="26.1757" x2="200.778" y2="24.7577" gradientUnits="userSpaceOnUse">
<stop stop-color="#AFDC00" stop-opacity="0"/>
<stop offset="0.472" stop-color="#84A600" stop-opacity="0.472"/>
<stop offset="1" stop-color="#586E00"/>
</linearGradient>
<linearGradient id="paint25_linear_2_2486" x1="224.125" y1="32.3759" x2="213.401" y2="27.9683" gradientUnits="userSpaceOnUse">
<stop offset="0.003" stop-color="#FFE000"/>
<stop offset="0.142" stop-color="#DCDE00"/>
<stop offset="0.274" stop-color="#C3DD00"/>
<stop offset="0.393" stop-color="#B4DC00"/>
<stop offset="0.491" stop-color="#AFDC00"/>
<stop offset="0.715" stop-color="#AEDA00"/>
<stop offset="0.796" stop-color="#A8D300"/>
<stop offset="0.854" stop-color="#9FC800"/>
<stop offset="0.901" stop-color="#91B700"/>
<stop offset="0.941" stop-color="#80A100"/>
<stop offset="0.975" stop-color="#6B8600"/>
<stop offset="1" stop-color="#586E00"/>
</linearGradient>
<linearGradient id="paint26_linear_2_2486" x1="220.404" y1="28.8846" x2="219.061" y2="32.339" gradientUnits="userSpaceOnUse">
<stop stop-color="#AFDC00" stop-opacity="0"/>
<stop offset="0.472" stop-color="#84A600" stop-opacity="0.472"/>
<stop offset="1" stop-color="#586E00"/>
</linearGradient>
<linearGradient id="paint27_linear_2_2486" x1="207.017" y1="39.8194" x2="199.635" y2="33.0137" gradientUnits="userSpaceOnUse">
<stop offset="0.003" stop-color="#FFE000"/>
<stop offset="0.142" stop-color="#DCDE00"/>
<stop offset="0.274" stop-color="#C3DD00"/>
<stop offset="0.393" stop-color="#B4DC00"/>
<stop offset="0.491" stop-color="#AFDC00"/>
<stop offset="0.715" stop-color="#AEDA00"/>
<stop offset="0.796" stop-color="#A8D300"/>
<stop offset="0.854" stop-color="#9FC800"/>
<stop offset="0.901" stop-color="#91B700"/>
<stop offset="0.941" stop-color="#80A100"/>
<stop offset="0.975" stop-color="#6B8600"/>
<stop offset="1" stop-color="#586E00"/>
</linearGradient>
<linearGradient id="paint28_linear_2_2486" x1="204.96" y1="35.9588" x2="203.134" y2="37.938" gradientUnits="userSpaceOnUse">
<stop stop-color="#AFDC00" stop-opacity="0"/>
<stop offset="0.472" stop-color="#84A600" stop-opacity="0.472"/>
<stop offset="1" stop-color="#586E00"/>
</linearGradient>
<linearGradient id="paint29_linear_2_2486" x1="228.811" y1="29.4049" x2="215.855" y2="29.0409" gradientUnits="userSpaceOnUse">
<stop offset="0.003" stop-color="#FFE000"/>
<stop offset="0.142" stop-color="#DCDE00"/>
<stop offset="0.274" stop-color="#C3DD00"/>
<stop offset="0.393" stop-color="#B4DC00"/>
<stop offset="0.491" stop-color="#AFDC00"/>
<stop offset="0.715" stop-color="#AEDA00"/>
<stop offset="0.796" stop-color="#A8D300"/>
<stop offset="0.854" stop-color="#9FC800"/>
<stop offset="0.901" stop-color="#91B700"/>
<stop offset="0.941" stop-color="#80A100"/>
<stop offset="0.975" stop-color="#6B8600"/>
<stop offset="1" stop-color="#586E00"/>
</linearGradient>
<linearGradient id="paint30_linear_2_2486" x1="223.417" y1="31.6179" x2="223.555" y2="26.6863" gradientUnits="userSpaceOnUse">
<stop stop-color="#AFDC00" stop-opacity="0"/>
<stop offset="0.472" stop-color="#84A600" stop-opacity="0.472"/>
<stop offset="1" stop-color="#586E00"/>
</linearGradient>
<linearGradient id="paint31_linear_2_2486" x1="209.186" y1="19.647" x2="202.1" y2="34.6605" gradientUnits="userSpaceOnUse">
<stop offset="0.003" stop-color="#FFE000"/>
<stop offset="0.142" stop-color="#DCDE00"/>
<stop offset="0.274" stop-color="#C3DD00"/>
<stop offset="0.393" stop-color="#B4DC00"/>
<stop offset="0.491" stop-color="#AFDC00"/>
<stop offset="0.556" stop-color="#A1CA00"/>
<stop offset="0.759" stop-color="#7A9900"/>
<stop offset="0.914" stop-color="#617A00"/>
<stop offset="1" stop-color="#586E00"/>
</linearGradient>
<linearGradient id="paint32_linear_2_2486" x1="207.191" y1="24.1661" x2="204.866" y2="22.3058" gradientUnits="userSpaceOnUse">
<stop stop-color="#AFDC00" stop-opacity="0"/>
<stop offset="0.472" stop-color="#84A600" stop-opacity="0.472"/>
<stop offset="1" stop-color="#586E00"/>
</linearGradient>
<linearGradient id="paint33_linear_2_2486" x1="212.977" y1="19.1795" x2="204.193" y2="32.3259" gradientUnits="userSpaceOnUse">
<stop offset="0.003" stop-color="#FFE000"/>
<stop offset="0.142" stop-color="#DCDE00"/>
<stop offset="0.274" stop-color="#C3DD00"/>
<stop offset="0.393" stop-color="#B4DC00"/>
<stop offset="0.491" stop-color="#AFDC00"/>
<stop offset="0.556" stop-color="#A1CA00"/>
<stop offset="0.759" stop-color="#7A9900"/>
<stop offset="0.914" stop-color="#617A00"/>
<stop offset="1" stop-color="#586E00"/>
</linearGradient>
<linearGradient id="paint34_linear_2_2486" x1="210.966" y1="24.8504" x2="207.161" y2="21.8757" gradientUnits="userSpaceOnUse">
<stop stop-color="#AFDC00" stop-opacity="0"/>
<stop offset="0.472" stop-color="#84A600" stop-opacity="0.472"/>
<stop offset="1" stop-color="#586E00"/>
</linearGradient>
<linearGradient id="paint35_linear_2_2486" x1="216.74" y1="19.86" x2="207.299" y2="30.615" gradientUnits="userSpaceOnUse">
<stop offset="0.003" stop-color="#FFE000"/>
<stop offset="0.142" stop-color="#DCDE00"/>
<stop offset="0.274" stop-color="#C3DD00"/>
<stop offset="0.393" stop-color="#B4DC00"/>
<stop offset="0.491" stop-color="#AFDC00"/>
<stop offset="0.556" stop-color="#A1CA00"/>
<stop offset="0.759" stop-color="#7A9900"/>
<stop offset="0.914" stop-color="#617A00"/>
<stop offset="1" stop-color="#586E00"/>
</linearGradient>
<linearGradient id="paint36_linear_2_2486" x1="214.644" y1="26.1944" x2="208.486" y2="21.3811" gradientUnits="userSpaceOnUse">
<stop stop-color="#AFDC00" stop-opacity="0"/>
<stop offset="0.472" stop-color="#84A600" stop-opacity="0.472"/>
<stop offset="1" stop-color="#586E00"/>
</linearGradient>
<linearGradient id="paint37_linear_2_2486" x1="220.714" y1="18.9563" x2="209.41" y2="32.1902" gradientUnits="userSpaceOnUse">
<stop offset="0.003" stop-color="#FFE000"/>
<stop offset="0.142" stop-color="#DCDE00"/>
<stop offset="0.274" stop-color="#C3DD00"/>
<stop offset="0.393" stop-color="#B4DC00"/>
<stop offset="0.491" stop-color="#AFDC00"/>
<stop offset="0.556" stop-color="#A1CA00"/>
<stop offset="0.759" stop-color="#7A9900"/>
<stop offset="0.914" stop-color="#617A00"/>
<stop offset="1" stop-color="#586E00"/>
</linearGradient>
<linearGradient id="paint38_linear_2_2486" x1="217.669" y1="27.1383" x2="209.708" y2="20.9148" gradientUnits="userSpaceOnUse">
<stop stop-color="#AFDC00" stop-opacity="0"/>
<stop offset="0.472" stop-color="#84A600" stop-opacity="0.472"/>
<stop offset="1" stop-color="#586E00"/>
</linearGradient>
<linearGradient id="paint39_linear_2_2486" x1="223.311" y1="21.8043" x2="211.892" y2="32.5141" gradientUnits="userSpaceOnUse">
<stop offset="0.003" stop-color="#FFE000"/>
<stop offset="0.142" stop-color="#DCDE00"/>
<stop offset="0.274" stop-color="#C3DD00"/>
<stop offset="0.393" stop-color="#B4DC00"/>
<stop offset="0.491" stop-color="#AFDC00"/>
<stop offset="0.556" stop-color="#A1CA00"/>
<stop offset="0.759" stop-color="#7A9900"/>
<stop offset="0.914" stop-color="#617A00"/>
<stop offset="1" stop-color="#586E00"/>
</linearGradient>
<linearGradient id="paint40_linear_2_2486" x1="221.501" y1="29.0854" x2="210.113" y2="20.1827" gradientUnits="userSpaceOnUse">
<stop stop-color="#AFDC00" stop-opacity="0"/>
<stop offset="0.472" stop-color="#84A600" stop-opacity="0.472"/>
<stop offset="1" stop-color="#586E00"/>
</linearGradient>
<linearGradient id="paint41_linear_2_2486" x1="222.718" y1="26.0773" x2="212.392" y2="31.7256" gradientUnits="userSpaceOnUse">
<stop offset="0.003" stop-color="#FFE000"/>
<stop offset="0.142" stop-color="#DCDE00"/>
<stop offset="0.274" stop-color="#C3DD00"/>
<stop offset="0.393" stop-color="#B4DC00"/>
<stop offset="0.491" stop-color="#AFDC00"/>
<stop offset="0.556" stop-color="#A1CA00"/>
<stop offset="0.759" stop-color="#7A9900"/>
<stop offset="0.914" stop-color="#617A00"/>
<stop offset="1" stop-color="#586E00"/>
</linearGradient>
<linearGradient id="paint42_linear_2_2486" x1="223.297" y1="30.4152" x2="211.386" y2="21.1039" gradientUnits="userSpaceOnUse">
<stop stop-color="#AFDC00" stop-opacity="0"/>
<stop offset="0.472" stop-color="#84A600" stop-opacity="0.472"/>
<stop offset="1" stop-color="#586E00"/>
</linearGradient>
<linearGradient id="paint43_linear_2_2486" x1="210.799" y1="38.8701" x2="201.704" y2="30.0418" gradientUnits="userSpaceOnUse">
<stop offset="0.003" stop-color="#FFE000"/>
<stop offset="0.142" stop-color="#DCDE00"/>
<stop offset="0.274" stop-color="#C3DD00"/>
<stop offset="0.393" stop-color="#B4DC00"/>
<stop offset="0.491" stop-color="#AFDC00"/>
<stop offset="0.556" stop-color="#A1CA00"/>
<stop offset="0.759" stop-color="#7A9900"/>
<stop offset="0.914" stop-color="#617A00"/>
<stop offset="1" stop-color="#586E00"/>
</linearGradient>
<linearGradient id="paint44_linear_2_2486" x1="208.548" y1="34.4518" x2="205.304" y2="38.3347" gradientUnits="userSpaceOnUse">
<stop stop-color="#AFDC00" stop-opacity="0"/>
<stop offset="0.472" stop-color="#84A600" stop-opacity="0.472"/>
<stop offset="1" stop-color="#586E00"/>
</linearGradient>
<linearGradient id="paint45_linear_2_2486" x1="214.489" y1="38.6383" x2="204.803" y2="29.2875" gradientUnits="userSpaceOnUse">
<stop offset="0.003" stop-color="#FFE000"/>
<stop offset="0.142" stop-color="#DCDE00"/>
<stop offset="0.274" stop-color="#C3DD00"/>
<stop offset="0.393" stop-color="#B4DC00"/>
<stop offset="0.491" stop-color="#AFDC00"/>
<stop offset="0.556" stop-color="#A1CA00"/>
<stop offset="0.759" stop-color="#7A9900"/>
<stop offset="0.914" stop-color="#617A00"/>
<stop offset="1" stop-color="#586E00"/>
</linearGradient>
<linearGradient id="paint46_linear_2_2486" x1="212.201" y1="32.702" x2="206.299" y2="38.1565" gradientUnits="userSpaceOnUse">
<stop stop-color="#AFDC00" stop-opacity="0"/>
<stop offset="0.472" stop-color="#84A600" stop-opacity="0.472"/>
<stop offset="1" stop-color="#586E00"/>
</linearGradient>
<linearGradient id="paint47_linear_2_2486" x1="220.249" y1="38.1188" x2="209.49" y2="25.5942" gradientUnits="userSpaceOnUse">
<stop offset="0.003" stop-color="#FFE000"/>
<stop offset="0.142" stop-color="#DCDE00"/>
<stop offset="0.274" stop-color="#C3DD00"/>
<stop offset="0.393" stop-color="#B4DC00"/>
<stop offset="0.491" stop-color="#AFDC00"/>
<stop offset="0.556" stop-color="#A1CA00"/>
<stop offset="0.759" stop-color="#7A9900"/>
<stop offset="0.914" stop-color="#617A00"/>
<stop offset="1" stop-color="#586E00"/>
</linearGradient>
<linearGradient id="paint48_linear_2_2486" x1="217.528" y1="30.214" x2="209.381" y2="36.6215" gradientUnits="userSpaceOnUse">
<stop stop-color="#AFDC00" stop-opacity="0"/>
<stop offset="0.472" stop-color="#84A600" stop-opacity="0.472"/>
<stop offset="1" stop-color="#586E00"/>
</linearGradient>
<linearGradient id="paint49_linear_2_2486" x1="222.581" y1="35.8626" x2="211.649" y2="24.2952" gradientUnits="userSpaceOnUse">
<stop offset="0.003" stop-color="#FFE000"/>
<stop offset="0.142" stop-color="#DCDE00"/>
<stop offset="0.274" stop-color="#C3DD00"/>
<stop offset="0.393" stop-color="#B4DC00"/>
<stop offset="0.491" stop-color="#AFDC00"/>
<stop offset="0.556" stop-color="#A1CA00"/>
<stop offset="0.759" stop-color="#7A9900"/>
<stop offset="0.914" stop-color="#617A00"/>
<stop offset="1" stop-color="#586E00"/>
</linearGradient>
<linearGradient id="paint50_linear_2_2486" x1="221.348" y1="28.2549" x2="208.684" y2="36.979" gradientUnits="userSpaceOnUse">
<stop stop-color="#AFDC00" stop-opacity="0"/>
<stop offset="0.472" stop-color="#84A600" stop-opacity="0.472"/>
<stop offset="1" stop-color="#586E00"/>
</linearGradient>
<linearGradient id="paint51_linear_2_2486" x1="214.543" y1="36.5983" x2="207.998" y2="24.9822" gradientUnits="userSpaceOnUse">
<stop offset="0.003" stop-color="#FFE000"/>
<stop offset="0.142" stop-color="#DCDE00"/>
<stop offset="0.274" stop-color="#C3DD00"/>
<stop offset="0.393" stop-color="#B4DC00"/>
<stop offset="0.491" stop-color="#AFDC00"/>
<stop offset="0.556" stop-color="#A1CA00"/>
<stop offset="0.759" stop-color="#7A9900"/>
<stop offset="0.914" stop-color="#617A00"/>
<stop offset="1" stop-color="#586E00"/>
</linearGradient>
<linearGradient id="paint52_linear_2_2486" x1="218.26" y1="32.7473" x2="199.001" y2="34.8043" gradientUnits="userSpaceOnUse">
<stop stop-color="#AFDC00" stop-opacity="0"/>
<stop offset="0.472" stop-color="#84A600" stop-opacity="0.472"/>
<stop offset="1" stop-color="#586E00"/>
</linearGradient>
<linearGradient id="paint53_linear_2_2486" x1="222.331" y1="30.9522" x2="194.978" y2="32.7229" gradientUnits="userSpaceOnUse">
<stop offset="0.003" stop-color="#FFE000"/>
<stop offset="0.142" stop-color="#DCDE00"/>
<stop offset="0.274" stop-color="#C3DD00"/>
<stop offset="0.393" stop-color="#B4DC00"/>
<stop offset="0.491" stop-color="#AFDC00"/>
<stop offset="0.715" stop-color="#AEDA00"/>
<stop offset="0.796" stop-color="#A8D300"/>
<stop offset="0.854" stop-color="#9FC800"/>
<stop offset="0.901" stop-color="#91B700"/>
<stop offset="0.941" stop-color="#80A100"/>
<stop offset="0.975" stop-color="#6B8600"/>
<stop offset="1" stop-color="#586E00"/>
</linearGradient>
<linearGradient id="paint54_linear_2_2486" x1="210.102" y1="38.1352" x2="198.903" y2="24.2558" gradientUnits="userSpaceOnUse">
<stop stop-color="#AFDC00" stop-opacity="0"/>
<stop offset="0.472" stop-color="#84A600" stop-opacity="0.472"/>
<stop offset="1" stop-color="#586E00"/>
</linearGradient>
<linearGradient id="paint55_linear_2_2486" x1="220.363" y1="42.0163" x2="207.129" y2="38.4521" gradientUnits="userSpaceOnUse">
<stop offset="0.003" stop-color="#FFE000"/>
<stop offset="0.142" stop-color="#DCDE00"/>
<stop offset="0.274" stop-color="#C3DD00"/>
<stop offset="0.393" stop-color="#B4DC00"/>
<stop offset="0.491" stop-color="#AFDC00"/>
<stop offset="0.556" stop-color="#A1CA00"/>
<stop offset="0.759" stop-color="#7A9900"/>
<stop offset="0.914" stop-color="#617A00"/>
<stop offset="1" stop-color="#586E00"/>
</linearGradient>
<linearGradient id="paint56_linear_2_2486" x1="215.809" y1="37.4902" x2="211.22" y2="47.8497" gradientUnits="userSpaceOnUse">
<stop stop-color="#AFDC00" stop-opacity="0"/>
<stop offset="0.472" stop-color="#84A600" stop-opacity="0.472"/>
<stop offset="1" stop-color="#586E00"/>
</linearGradient>
<linearGradient id="paint57_linear_2_2486" x1="222.931" y1="41.8214" x2="208.303" y2="38.3737" gradientUnits="userSpaceOnUse">
<stop offset="0.003" stop-color="#FFE000"/>
<stop offset="0.142" stop-color="#DCDE00"/>
<stop offset="0.274" stop-color="#C3DD00"/>
<stop offset="0.393" stop-color="#B4DC00"/>
<stop offset="0.491" stop-color="#AFDC00"/>
<stop offset="0.556" stop-color="#A1CA00"/>
<stop offset="0.759" stop-color="#7A9900"/>
<stop offset="0.914" stop-color="#617A00"/>
<stop offset="1" stop-color="#586E00"/>
</linearGradient>
<linearGradient id="paint58_linear_2_2486" x1="217.783" y1="37.0185" x2="213.114" y2="48.5312" gradientUnits="userSpaceOnUse">
<stop stop-color="#AFDC00" stop-opacity="0"/>
<stop offset="0.472" stop-color="#84A600" stop-opacity="0.472"/>
<stop offset="1" stop-color="#586E00"/>
</linearGradient>
<linearGradient id="paint59_linear_2_2486" x1="205.369" y1="44.5285" x2="216.101" y2="31.4473" gradientUnits="userSpaceOnUse">
<stop stop-color="#586E00"/>
<stop offset="0.025" stop-color="#6B8600"/>
<stop offset="0.059" stop-color="#80A100"/>
<stop offset="0.099" stop-color="#91B700"/>
<stop offset="0.146" stop-color="#9FC800"/>
<stop offset="0.204" stop-color="#A8D300"/>
<stop offset="0.285" stop-color="#AEDA00"/>
<stop offset="0.509" stop-color="#AFDC00"/>
<stop offset="0.607" stop-color="#B4DC00"/>
<stop offset="0.727" stop-color="#C3DD00"/>
<stop offset="0.858" stop-color="#DCDE00"/>
<stop offset="0.998" stop-color="#FFE000"/>
</linearGradient>
<linearGradient id="paint60_linear_2_2486" x1="210.587" y1="35.6842" x2="211.536" y2="45.2993" gradientUnits="userSpaceOnUse">
<stop stop-color="#AFDC00" stop-opacity="0"/>
<stop offset="0.472" stop-color="#84A600" stop-opacity="0.472"/>
<stop offset="1" stop-color="#586E00"/>
</linearGradient>
<linearGradient id="paint61_linear_2_2486" x1="220.504" y1="46.1032" x2="204.916" y2="38.8745" gradientUnits="userSpaceOnUse">
<stop offset="0.003" stop-color="#FFE000"/>
<stop offset="0.142" stop-color="#DCDE00"/>
<stop offset="0.274" stop-color="#C3DD00"/>
<stop offset="0.393" stop-color="#B4DC00"/>
<stop offset="0.491" stop-color="#AFDC00"/>
<stop offset="0.556" stop-color="#A1CA00"/>
<stop offset="0.759" stop-color="#7A9900"/>
<stop offset="0.914" stop-color="#617A00"/>
<stop offset="1" stop-color="#586E00"/>
</linearGradient>
<linearGradient id="paint62_linear_2_2486" x1="214.144" y1="40.5156" x2="210.492" y2="47.5727" gradientUnits="userSpaceOnUse">
<stop stop-color="#AFDC00" stop-opacity="0"/>
<stop offset="0.472" stop-color="#84A600" stop-opacity="0.472"/>
<stop offset="1" stop-color="#586E00"/>
</linearGradient>
<linearGradient id="paint63_linear_2_2486" x1="223.806" y1="43.7666" x2="207.129" y2="39.6307" gradientUnits="userSpaceOnUse">
<stop offset="0.003" stop-color="#FFE000"/>
<stop offset="0.142" stop-color="#DCDE00"/>
<stop offset="0.274" stop-color="#C3DD00"/>
<stop offset="0.393" stop-color="#B4DC00"/>
<stop offset="0.491" stop-color="#AFDC00"/>
<stop offset="0.556" stop-color="#A1CA00"/>
<stop offset="0.759" stop-color="#7A9900"/>
<stop offset="0.914" stop-color="#617A00"/>
<stop offset="1" stop-color="#586E00"/>
</linearGradient>
<linearGradient id="paint64_linear_2_2486" x1="216.501" y1="39.4891" x2="214.257" y2="47.1119" gradientUnits="userSpaceOnUse">
<stop stop-color="#AFDC00" stop-opacity="0"/>
<stop offset="0.472" stop-color="#84A600" stop-opacity="0.472"/>
<stop offset="1" stop-color="#586E00"/>
</linearGradient>
<linearGradient id="paint65_linear_2_2486" x1="226.414" y1="40.5589" x2="210.05" y2="41.2709" gradientUnits="userSpaceOnUse">
<stop offset="0.003" stop-color="#FFE000"/>
<stop offset="0.142" stop-color="#DCDE00"/>
<stop offset="0.274" stop-color="#C3DD00"/>
<stop offset="0.393" stop-color="#B4DC00"/>
<stop offset="0.491" stop-color="#AFDC00"/>
<stop offset="0.556" stop-color="#A1CA00"/>
<stop offset="0.759" stop-color="#7A9900"/>
<stop offset="0.914" stop-color="#617A00"/>
<stop offset="1" stop-color="#586E00"/>
</linearGradient>
<linearGradient id="paint66_linear_2_2486" x1="218.582" y1="39.3168" x2="218.583" y2="44.4449" gradientUnits="userSpaceOnUse">
<stop stop-color="#AFDC00" stop-opacity="0"/>
<stop offset="0.472" stop-color="#84A600" stop-opacity="0.472"/>
<stop offset="1" stop-color="#586E00"/>
</linearGradient>
<linearGradient id="paint67_linear_2_2486" x1="46.104" y1="17.8131" x2="53.8391" y2="17.3226" gradientUnits="userSpaceOnUse">
<stop offset="0.003" stop-color="#FFE000"/>
<stop offset="0.018" stop-color="#FCE000"/>
<stop offset="0.319" stop-color="#C5DD00"/>
<stop offset="0.464" stop-color="#AFDC00"/>
<stop offset="0.55" stop-color="#A7D200"/>
<stop offset="0.695" stop-color="#93B800"/>
<stop offset="0.879" stop-color="#718E00"/>
<stop offset="1" stop-color="#586E00"/>
</linearGradient>
<linearGradient id="paint68_linear_2_2486" x1="48.761" y1="16.4803" x2="50.0637" y2="18.9994" gradientUnits="userSpaceOnUse">
<stop stop-color="#AFDC00" stop-opacity="0"/>
<stop offset="0.472" stop-color="#84A600" stop-opacity="0.472"/>
<stop offset="1" stop-color="#586E00"/>
</linearGradient>
<linearGradient id="paint69_linear_2_2486" x1="51.8479" y1="22.405" x2="54.5855" y2="15.1537" gradientUnits="userSpaceOnUse">
<stop offset="0.003" stop-color="#FFE000"/>
<stop offset="0.018" stop-color="#FCE000"/>
<stop offset="0.319" stop-color="#C5DD00"/>
<stop offset="0.464" stop-color="#AFDC00"/>
<stop offset="0.55" stop-color="#A7D200"/>
<stop offset="0.695" stop-color="#93B800"/>
<stop offset="0.879" stop-color="#718E00"/>
<stop offset="1" stop-color="#586E00"/>
</linearGradient>
<linearGradient id="paint70_linear_2_2486" x1="51.7268" y1="19.4352" x2="54.5589" y2="19.285" gradientUnits="userSpaceOnUse">
<stop stop-color="#AFDC00" stop-opacity="0"/>
<stop offset="0.472" stop-color="#84A600" stop-opacity="0.472"/>
<stop offset="1" stop-color="#586E00"/>
</linearGradient>
<linearGradient id="paint71_linear_2_2486" x1="60.9285" y1="17.9946" x2="53.2312" y2="17.0862" gradientUnits="userSpaceOnUse">
<stop offset="0.003" stop-color="#FFE000"/>
<stop offset="0.018" stop-color="#FCE000"/>
<stop offset="0.319" stop-color="#C5DD00"/>
<stop offset="0.464" stop-color="#AFDC00"/>
<stop offset="0.55" stop-color="#A7D200"/>
<stop offset="0.695" stop-color="#93B800"/>
<stop offset="0.879" stop-color="#718E00"/>
<stop offset="1" stop-color="#586E00"/>
</linearGradient>
<linearGradient id="paint72_linear_2_2486" x1="58.3475" y1="16.5194" x2="56.9101" y2="18.9644" gradientUnits="userSpaceOnUse">
<stop stop-color="#AFDC00" stop-opacity="0"/>
<stop offset="0.472" stop-color="#84A600" stop-opacity="0.472"/>
<stop offset="1" stop-color="#586E00"/>
</linearGradient>
<linearGradient id="paint73_linear_2_2486" x1="51.8453" y1="20.1671" x2="50.1877" y2="16.5297" gradientUnits="userSpaceOnUse">
<stop stop-color="#AFDC00" stop-opacity="0"/>
<stop offset="0.472" stop-color="#84A600" stop-opacity="0.472"/>
<stop offset="1" stop-color="#586E00"/>
</linearGradient>
<linearGradient id="paint74_linear_2_2486" x1="55.3265" y1="20.5169" x2="52.2509" y2="17.4413" gradientUnits="userSpaceOnUse">
<stop stop-color="#AFDC00" stop-opacity="0"/>
<stop offset="0.472" stop-color="#84A600" stop-opacity="0.472"/>
<stop offset="1" stop-color="#586E00"/>
</linearGradient>
<linearGradient id="paint75_linear_2_2486" x1="58.4581" y1="18.5097" x2="56.6958" y2="17.0741" gradientUnits="userSpaceOnUse">
<stop stop-color="#AFDC00" stop-opacity="0"/>
<stop offset="0.472" stop-color="#84A600" stop-opacity="0.472"/>
<stop offset="1" stop-color="#586E00"/>
</linearGradient>
<radialGradient id="paint76_radial_2_2486" cx="0" cy="0" r="1" gradientUnits="userSpaceOnUse" gradientTransform="translate(53.0445 17.1805) rotate(-12.0812) scale(6.66052 6.66091)">
<stop stop-color="#FF5C45"/>
<stop offset="0.29" stop-color="#FF5F47"/>
<stop offset="0.498" stop-color="#FF684E"/>
<stop offset="0.681" stop-color="#FF785B"/>
<stop offset="0.847" stop-color="#FF8E6C"/>
<stop offset="0.998" stop-color="#FFA981"/>
</radialGradient>
<linearGradient id="paint77_linear_2_2486" x1="55.8844" y1="12.9724" x2="51.725" y2="12.9724" gradientUnits="userSpaceOnUse">
<stop stop-color="#FFA981" stop-opacity="0"/>
<stop offset="1" stop-color="#B82934"/>
</linearGradient>
<linearGradient id="paint78_linear_2_2486" x1="54.2422" y1="11.3568" x2="53.5573" y2="15.2126" gradientUnits="userSpaceOnUse">
<stop stop-color="#FFA981" stop-opacity="0"/>
<stop offset="1" stop-color="#B82934"/>
</linearGradient>
<radialGradient id="paint79_radial_2_2486" cx="0" cy="0" r="1" gradientUnits="userSpaceOnUse" gradientTransform="translate(55.4631 16.2399) scale(6.8274 6.8274)">
<stop stop-color="#FF5C45"/>
<stop offset="0.29" stop-color="#FF5F47"/>
<stop offset="0.498" stop-color="#FF684E"/>
<stop offset="0.681" stop-color="#FF785B"/>
<stop offset="0.847" stop-color="#FF8E6C"/>
<stop offset="0.998" stop-color="#FFA981"/>
</radialGradient>
<linearGradient id="paint80_linear_2_2486" x1="49.8729" y1="12.0828" x2="53.666" y2="16.0742" gradientUnits="userSpaceOnUse">
<stop stop-color="#FFA981" stop-opacity="0"/>
<stop offset="1" stop-color="#B82934"/>
</linearGradient>
<radialGradient id="paint81_radial_2_2486" cx="0" cy="0" r="1" gradientUnits="userSpaceOnUse" gradientTransform="translate(55.7187 12.1613) rotate(8.65574) scale(7.08039 7.39718)">
<stop stop-color="#FF5C45"/>
<stop offset="0.29" stop-color="#FF5F47"/>
<stop offset="0.498" stop-color="#FF684E"/>
<stop offset="0.681" stop-color="#FF785B"/>
<stop offset="0.847" stop-color="#FF8E6C"/>
<stop offset="0.998" stop-color="#FFA981"/>
</radialGradient>
<radialGradient id="paint82_radial_2_2486" cx="0" cy="0" r="1" gradientUnits="userSpaceOnUse" gradientTransform="translate(49.9498 15.0356) rotate(-12.1735) scale(6.34532 7.3281)">
<stop stop-color="#FF5C45"/>
<stop offset="0.29" stop-color="#FF5F47"/>
<stop offset="0.498" stop-color="#FF684E"/>
<stop offset="0.681" stop-color="#FF785B"/>
<stop offset="0.847" stop-color="#FF8E6C"/>
<stop offset="0.998" stop-color="#FFA981"/>
</radialGradient>
<linearGradient id="paint83_linear_2_2486" x1="56.4719" y1="16.0808" x2="53.3021" y2="14.0317" gradientUnits="userSpaceOnUse">
<stop stop-color="#FFA981" stop-opacity="0"/>
<stop offset="1" stop-color="#B82934"/>
</linearGradient>
<linearGradient id="paint84_linear_2_2486" x1="57.1059" y1="15.116" x2="53.1917" y2="14.9793" gradientUnits="userSpaceOnUse">
<stop stop-color="#FFA981" stop-opacity="0"/>
<stop offset="1" stop-color="#B82934"/>
</linearGradient>
<radialGradient id="paint85_radial_2_2486" cx="0" cy="0" r="1" gradientUnits="userSpaceOnUse" gradientTransform="translate(53.1059 11.4108) rotate(-13.4327) scale(6.41118 6.41116)">
<stop stop-color="#FF5C45"/>
<stop offset="0.29" stop-color="#FF5F47"/>
<stop offset="0.498" stop-color="#FF684E"/>
<stop offset="0.681" stop-color="#FF785B"/>
<stop offset="0.847" stop-color="#FF8E6C"/>
<stop offset="0.998" stop-color="#FFA981"/>
</radialGradient>
<linearGradient id="paint86_linear_2_2486" x1="49.9436" y1="17.2401" x2="53.2251" y2="15.1025" gradientUnits="userSpaceOnUse">
<stop stop-color="#FFA981" stop-opacity="0"/>
<stop offset="1" stop-color="#B82934"/>
</linearGradient>
<linearGradient id="paint87_linear_2_2486" x1="56.7034" y1="17.9496" x2="52.4456" y2="14.4494" gradientUnits="userSpaceOnUse">
<stop stop-color="#FFA981" stop-opacity="0"/>
<stop offset="1" stop-color="#B82934"/>
</linearGradient>
<linearGradient id="paint88_linear_2_2486" x1="57.6779" y1="18.8184" x2="51.751" y2="12.8918" gradientUnits="userSpaceOnUse">
<stop stop-color="#FFA981" stop-opacity="0"/>
<stop offset="1" stop-color="#B82934"/>
</linearGradient>
<linearGradient id="paint89_linear_2_2486" x1="51.4719" y1="13.0228" x2="52.8455" y2="12.3208" gradientUnits="userSpaceOnUse">
<stop stop-color="#FEFFB3"/>
<stop offset="1" stop-color="#FFCD77"/>
</linearGradient>
<radialGradient id="paint90_radial_2_2486" cx="0" cy="0" r="1" gradientUnits="userSpaceOnUse" gradientTransform="translate(50.5538 9.44502) scale(1.10752 1.10753)">
<stop stop-color="#FEFFB3"/>
<stop offset="0.193" stop-color="#FEF296"/>
<stop offset="0.609" stop-color="#FFD14B"/>
<stop offset="1" stop-color="#FFAF00"/>
</radialGradient>
<radialGradient id="paint91_radial_2_2486" cx="0" cy="0" r="1" gradientUnits="userSpaceOnUse" gradientTransform="translate(50.8711 10.5471) scale(0.549939)">
<stop stop-color="#FEFFB3"/>
<stop offset="0.193" stop-color="#FEF296"/>
<stop offset="0.609" stop-color="#FFD14B"/>
<stop offset="1" stop-color="#FFAF00"/>
</radialGradient>
<radialGradient id="paint92_radial_2_2486" cx="0" cy="0" r="1" gradientUnits="userSpaceOnUse" gradientTransform="translate(51.6006 10.4414) scale(0.549939 0.549941)">
<stop stop-color="#FEFFB3"/>
<stop offset="0.193" stop-color="#FEF296"/>
<stop offset="0.609" stop-color="#FFD14B"/>
<stop offset="1" stop-color="#FFAF00"/>
</radialGradient>
<radialGradient id="paint93_radial_2_2486" cx="0" cy="0" r="1" gradientUnits="userSpaceOnUse" gradientTransform="translate(51.294 11.2451) scale(0.549939)">
<stop stop-color="#FEFFB3"/>
<stop offset="0.193" stop-color="#FEF296"/>
<stop offset="0.609" stop-color="#FFD14B"/>
<stop offset="1" stop-color="#FFAF00"/>
</radialGradient>
<radialGradient id="paint94_radial_2_2486" cx="0" cy="0" r="1" gradientUnits="userSpaceOnUse" gradientTransform="translate(52.0026 11.3721) scale(0.549939)">
<stop stop-color="#FEFFB3"/>
<stop offset="0.193" stop-color="#FEF296"/>
<stop offset="0.609" stop-color="#FFD14B"/>
<stop offset="1" stop-color="#FFAF00"/>
</radialGradient>
<clipPath id="clip0_2_2486">
<rect width="36" height="36" fill="white" transform="translate(129 13)"/>
</clipPath>
<clipPath id="clip1_2_2486">
<rect width="28" height="28" fill="white" transform="translate(208.573 13) rotate(31.3628)"/>
</clipPath>
<clipPath id="clip2_2_2486">
<rect width="13" height="13" fill="white" transform="translate(47 9)"/>
</clipPath>
</defs>
</svg>
